<?xml version="1.0" encoding="iso-8859-1"?>
<!-- Generator: Adobe Illustrator 18.0.0, SVG Export Plug-In . SVG Version: 6.00 Build 0)  -->
<!DOCTYPE svg PUBLIC "-//W3C//DTD SVG 1.1//EN" "http://www.w3.org/Graphics/SVG/1.1/DTD/svg11.dtd">
<svg xmlns="http://www.w3.org/2000/svg" xmlns:xlink="http://www.w3.org/1999/xlink" version="1.1" id="Capa_1" x="0px" y="0px" viewBox="0 0 303.155 303.155" style="enable-background:new 0 0 303.155 303.155;" xml:space="preserve" width="512px" height="512px">
<g>
	<path d="M151.578,0C67.998,0,0.001,67.998,0.001,151.579c0,83.579,67.997,151.576,151.577,151.576   c83.579,0,151.576-67.997,151.576-151.576C303.154,67.998,235.157,0,151.578,0z M90.191,191.032   c0.532,0.917,0.534,2.049,0.005,2.968c-0.529,0.919-1.509,1.485-2.569,1.485H39.594c-4.122,0-7.769-2.686-8.986-6.624   c-3.643-11.791-5.607-24.311-5.607-37.282c0-16.766,3.282-32.778,9.229-47.435c0.426-1.049,1.411-1.764,2.54-1.843   c1.129-0.079,2.203,0.492,2.771,1.471L90.191,191.032z M212.964,112.123c-0.532-0.917-0.534-2.049-0.005-2.968   c0.529-0.919,1.509-1.485,2.569-1.485h48.033c4.122,0,7.769,2.686,8.986,6.624c3.643,11.792,5.607,24.313,5.607,37.285   c0,16.765-3.282,32.777-9.229,47.433c-0.426,1.049-1.411,1.764-2.54,1.843c-1.129,0.079-2.203-0.492-2.771-1.471L212.964,112.123z    M251.533,74.011c0.695,0.894,0.82,2.105,0.324,3.122c-0.497,1.017-1.53,1.663-2.662,1.663H147.607   c-1.056,0-2.033-0.562-2.563-1.475s-0.535-2.04-0.012-2.958l23.841-41.825c2.044-3.586,6.182-5.415,10.212-4.518   C208.301,34.519,233.747,51.144,251.533,74.011z M133.71,26.266c1.12-0.159,2.232,0.333,2.868,1.268   c0.636,0.935,0.685,2.151,0.125,3.134L86.632,118.51c-0.525,0.922-1.503,1.492-2.564,1.497c-1.061,0.004-2.043-0.559-2.576-1.476   L57.337,76.912c-2.071-3.569-1.573-8.063,1.226-11.096C77.886,44.875,104.175,30.457,133.71,26.266z M51.622,229.144   c-0.695-0.894-0.82-2.105-0.323-3.122c0.497-1.017,1.53-1.663,2.662-1.663h59.886c0.005,0,0.01,0.001,0.015,0.001   s0.01-0.001,0.015-0.001h41.673c1.056,0,2.033,0.562,2.563,1.475c0.531,0.913,0.535,2.04,0.012,2.958l-23.841,41.825   c-2.044,3.586-6.182,5.415-10.212,4.518C94.854,268.636,69.408,252.012,51.622,229.144z M169.446,276.89   c-1.12,0.159-2.232-0.333-2.868-1.268c-0.636-0.935-0.685-2.151-0.125-3.134l50.072-87.842c0.525-0.922,1.503-1.492,2.564-1.497   c1.061-0.004,2.043,0.559,2.576,1.476l24.155,41.618c2.071,3.569,1.573,8.063-1.226,11.096   C225.27,258.28,198.981,272.699,169.446,276.89z" fill="#D80027"/>
</g>
<g>
</g>
<g>
</g>
<g>
</g>
<g>
</g>
<g>
</g>
<g>
</g>
<g>
</g>
<g>
</g>
<g>
</g>
<g>
</g>
<g>
</g>
<g>
</g>
<g>
</g>
<g>
</g>
<g>
</g>
</svg>
