<?xml version="1.0" encoding="iso-8859-1"?>
<!-- Generator: Adobe Illustrator 16.0.0, SVG Export Plug-In . SVG Version: 6.00 Build 0)  -->
<!DOCTYPE svg PUBLIC "-//W3C//DTD SVG 1.1//EN" "http://www.w3.org/Graphics/SVG/1.1/DTD/svg11.dtd">
<svg xmlns="http://www.w3.org/2000/svg" xmlns:xlink="http://www.w3.org/1999/xlink" version="1.1" id="Capa_1" x="0px" y="0px" width="512px" height="512px" viewBox="0 0 161.872 161.872" style="enable-background:new 0 0 161.872 161.872;" xml:space="preserve">
<g>
	<g>
		<g>
			<g>
				<path d="M85.919,0H23.133C8.339,0,5.195,3.139,5.195,17.94v80.709c0,14.807,3.144,17.948,17.938,17.948h60.536v-4.767H23.133      c-12.189,0-13.174-0.99-13.174-13.182V17.935c0-12.191,0.985-13.185,13.174-13.185h62.786c12.186,0,13.176,0.988,13.176,13.185      v78.473h4.76V17.935C103.845,3.133,100.703,0,85.919,0z" fill="#51991d"/>
				<polygon points="86.624,113.632 100.895,99.36 86.624,99.36     " fill="#51991d"/>
			</g>
			<g>
				<path d="M41.959,23.344h2.454v15.475h-2.454V23.344z" fill="#51991d"/>
				<path d="M43.188,50.553c0.937,0,1.748,0.318,2.466,0.943c0.705,0.62,1.064,1.517,1.064,2.683v8.326      c0,1.094-0.359,1.951-1.064,2.577c-0.712,0.63-1.529,0.936-2.466,0.936c-0.93,0-1.779-0.312-2.459-0.936      c-0.7-0.626-1.054-1.491-1.054-2.577v-8.326c0-1.166,0.347-2.062,1.054-2.683C41.409,50.865,42.258,50.553,43.188,50.553z       M42.139,62.862c0,0.706,0.336,1.06,1.048,1.06c0.717,0,1.065-0.354,1.065-1.06v-9.149c0-0.701-0.348-1.053-1.065-1.053      c-0.705,0-1.048,0.353-1.048,1.053V62.862z" fill="#51991d"/>
				<path d="M43.188,77.769c0.937,0,1.748,0.314,2.466,0.937c0.705,0.625,1.064,1.522,1.064,2.694v8.32      c0,1.09-0.359,1.959-1.064,2.577c-0.712,0.624-1.529,0.941-2.466,0.941c-0.93,0-1.779-0.317-2.459-0.941      c-0.7-0.618-1.054-1.494-1.054-2.577v-8.32c0-1.166,0.347-2.068,1.054-2.694C41.409,78.077,42.258,77.769,43.188,77.769z       M42.139,90.068c0,0.713,0.336,1.058,1.048,1.058c0.717,0,1.065-0.345,1.065-1.058v-9.134c0-0.711-0.348-1.064-1.065-1.064      c-0.705,0-1.048,0.348-1.048,1.064V90.068z" fill="#51991d"/>
				<path d="M20.509,23.344c0.936,0,1.753,0.312,2.465,0.941c0.7,0.622,1.067,1.519,1.067,2.695v8.314      c0,1.092-0.373,1.956-1.067,2.577c-0.707,0.623-1.529,0.942-2.465,0.942c-0.947,0-1.765-0.319-2.47-0.942      c-0.686-0.621-1.055-1.491-1.055-2.577V26.98c0-1.176,0.369-2.074,1.055-2.695C18.744,23.656,19.562,23.344,20.509,23.344z       M19.455,35.653c0,0.706,0.354,1.059,1.054,1.059c0.719,0,1.072-0.353,1.072-1.059v-9.144c0-0.706-0.353-1.059-1.072-1.059      c-0.7,0-1.054,0.353-1.054,1.059V35.653z" fill="#51991d"/>
				<path d="M20.509,50.553c0.936,0,1.753,0.318,2.465,0.943c0.7,0.62,1.067,1.517,1.067,2.683v8.326      c0,1.094-0.373,1.951-1.067,2.577c-0.707,0.63-1.529,0.936-2.465,0.936c-0.947,0-1.765-0.312-2.47-0.936      c-0.686-0.626-1.055-1.491-1.055-2.577v-8.326c0-1.166,0.369-2.062,1.055-2.683C18.744,50.865,19.562,50.553,20.509,50.553z       M19.455,62.862c0,0.706,0.354,1.06,1.054,1.06c0.719,0,1.072-0.354,1.072-1.06v-9.149c0-0.701-0.353-1.053-1.072-1.053      c-0.7,0-1.054,0.353-1.054,1.053V62.862z" fill="#51991d"/>
				<path d="M19.289,77.769h2.465v15.475h-2.465V77.769z" fill="#51991d"/>
				<path d="M65.863,23.344c0.936,0,1.748,0.312,2.46,0.941c0.701,0.622,1.064,1.519,1.064,2.695v8.314      c0,1.092-0.359,1.956-1.064,2.577c-0.712,0.623-1.529,0.942-2.46,0.942c-0.941,0-1.765-0.319-2.465-0.942      c-0.7-0.621-1.053-1.491-1.053-2.577V26.98c0-1.176,0.353-2.074,1.053-2.695C64.099,23.656,64.922,23.344,65.863,23.344z       M64.805,35.653c0,0.706,0.357,1.059,1.058,1.059c0.707,0,1.069-0.353,1.069-1.059v-9.144c0-0.706-0.362-1.059-1.069-1.059      c-0.701,0-1.058,0.353-1.058,1.059V35.653z" fill="#51991d"/>
				<path d="M65.863,50.553c0.936,0,1.748,0.318,2.46,0.943c0.701,0.62,1.064,1.517,1.064,2.683v8.326      c0,1.094-0.359,1.951-1.064,2.577c-0.712,0.63-1.529,0.936-2.46,0.936c-0.941,0-1.765-0.312-2.465-0.936      c-0.7-0.626-1.053-1.491-1.053-2.577v-8.326c0-1.166,0.353-2.062,1.053-2.683C64.099,50.865,64.922,50.553,65.863,50.553z       M64.805,62.862c0,0.706,0.357,1.06,1.058,1.06c0.707,0,1.069-0.354,1.069-1.06v-9.149c0-0.701-0.362-1.053-1.069-1.053      c-0.701,0-1.058,0.353-1.058,1.053V62.862z" fill="#51991d"/>
				<path d="M64.63,77.769h2.458v15.475H64.63V77.769z" fill="#51991d"/>
				<path d="M88.534,23.344c0.93,0,1.751,0.312,2.462,0.941c0.7,0.622,1.058,1.519,1.058,2.695v8.314      c0,1.092-0.368,1.956-1.058,2.577c-0.711,0.623-1.532,0.942-2.462,0.942c-0.947,0-1.761-0.319-2.474-0.942      c-0.688-0.621-1.057-1.491-1.057-2.577V26.98c0-1.176,0.369-2.074,1.057-2.695C86.773,23.656,87.587,23.344,88.534,23.344z       M87.474,35.653c0,0.706,0.351,1.059,1.065,1.059c0.7,0,1.069-0.353,1.069-1.059v-9.144c0-0.706-0.369-1.059-1.069-1.059      c-0.711,0-1.065,0.353-1.065,1.059V35.653z" fill="#51991d"/>
				<path d="M88.534,50.553c0.93,0,1.751,0.318,2.462,0.943c0.7,0.62,1.058,1.517,1.058,2.683v8.326      c0,1.094-0.368,1.951-1.058,2.577c-0.711,0.63-1.532,0.936-2.462,0.936c-0.947,0-1.761-0.312-2.474-0.936      c-0.688-0.626-1.057-1.491-1.057-2.577v-8.326c0-1.166,0.369-2.062,1.057-2.683C86.773,50.865,87.587,50.553,88.534,50.553z       M87.474,62.862c0,0.706,0.351,1.06,1.065,1.06c0.7,0,1.069-0.354,1.069-1.06v-9.149c0-0.701-0.369-1.053-1.069-1.053      c-0.711,0-1.065,0.353-1.065,1.053V62.862z" fill="#51991d"/>
				<path d="M87.308,77.769h2.451v15.475h-2.451V77.769z" fill="#51991d"/>
			</g>
		</g>
		<path d="M152.469,77.068l3.58-1.327c0.501-0.186,0.753-0.736,0.567-1.229l-2.985-8.084c-0.178-0.493-0.736-0.757-1.237-0.572    l-3.567,1.327c-0.504,0.187-1.105,0.102-1.349-0.183c-0.229-0.276-0.743-1.368-0.514-1.844l1.598-3.458    c0.214-0.481,0-1.053-0.469-1.277l-7.825-3.61c-0.472-0.216-1.059-0.006-1.274,0.465l-1.593,3.469    c-0.231,0.471-0.7,0.845-1.068,0.823c-0.367-0.016-1.494-0.427-1.681-0.93l-1.322-3.591c-0.186-0.483-0.735-0.74-1.228-0.567    l-8.087,2.982c-0.499,0.187-0.756,0.733-0.569,1.24l1.318,3.59c0.186,0.484,0.105,1.094-0.18,1.329    c-0.274,0.235-1.358,0.739-1.839,0.525l-3.47-1.6c-0.471-0.219-1.045-0.006-1.259,0.47l-3.611,7.834    c-0.225,0.47-0.005,1.047,0.473,1.261l3.456,1.6c0.483,0.214,0.843,0.7,0.834,1.064c-0.033,0.361-0.451,1.486-0.938,1.671    l-3.582,1.316c-0.489,0.18-0.747,0.728-0.569,1.231l2.987,8.102c0.184,0.481,0.743,0.743,1.224,0.565l3.596-1.332    c0.494-0.186,1.102-0.109,1.33,0.187c0.24,0.272,0.749,1.356,0.529,1.846l-1.607,3.451c-0.225,0.471-0.004,1.05,0.467,1.274    l7.834,3.605c0.473,0.231,1.056,0.012,1.264-0.459l1.6-3.469c0.225-0.472,0.7-0.844,1.065-0.821    c0.363,0.022,1.488,0.428,1.675,0.93l1.318,3.579c0.181,0.492,0.74,0.761,1.231,0.575l8.087-2.988    c0.495-0.181,0.756-0.733,0.569-1.231l-1.324-3.589c-0.184-0.493-0.109-1.095,0.176-1.33c0.284-0.241,1.368-0.75,1.849-0.531    l3.461,1.609c0.49,0.218,1.054,0,1.278-0.471l3.601-7.83c0.225-0.476,0.011-1.048-0.458-1.267l-3.46-1.598    c-0.481-0.219-0.799-1.374-0.799-1.743C151.571,77.694,151.965,77.246,152.469,77.068z M138.657,86.753    c-4.958,1.828-10.468-0.7-12.302-5.674c-1.827-4.958,0.708-10.471,5.681-12.303c4.958-1.829,10.468,0.71,12.295,5.679    C146.17,79.405,143.631,84.915,138.657,86.753z" fill="#51991d"/>
		<path d="M148.574,131.011l5.021-1.858c0.701-0.26,1.054-1.031,0.794-1.731l-4.18-11.322c-0.252-0.693-1.027-1.056-1.728-0.804    l-4.996,1.861c-0.714,0.263-1.551,0.142-1.896-0.252c-0.328-0.39-1.037-1.916-0.715-2.583l2.236-4.837    c0.29-0.685,0-1.478-0.662-1.79l-10.972-5.05c-0.668-0.312-1.477-0.012-1.771,0.655l-2.24,4.854    c-0.323,0.668-0.99,1.188-1.494,1.154c-0.515-0.027-2.102-0.602-2.354-1.302l-1.849-5.019c-0.263-0.684-1.034-1.044-1.724-0.794    l-11.322,4.182c-0.7,0.252-1.056,1.028-0.804,1.729l1.857,5.023c0.257,0.69,0.14,1.532-0.247,1.86    c-0.388,0.334-1.905,1.045-2.578,0.745l-4.854-2.25c-0.662-0.3-1.461-0.005-1.778,0.663l-5.049,10.981    c-0.313,0.663-0.013,1.461,0.668,1.769l4.841,2.242c0.668,0.296,1.182,0.98,1.173,1.489c-0.046,0.514-0.631,2.091-1.311,2.343    l-5.028,1.849c-0.679,0.252-1.039,1.019-0.791,1.719l4.179,11.348c0.257,0.68,1.047,1.051,1.724,0.789l5.028-1.859    c0.69-0.253,1.537-0.144,1.868,0.262c0.337,0.383,1.037,1.893,0.731,2.577l-2.244,4.843c-0.317,0.667-0.011,1.466,0.652,1.772    l10.978,5.062c0.672,0.313,1.481,0.016,1.779-0.651l2.232-4.858c0.317-0.668,0.984-1.183,1.503-1.147    c0.503,0.02,2.084,0.594,2.336,1.294l1.852,5.019c0.249,0.69,1.032,1.062,1.732,0.804l11.322-4.18    c0.7-0.257,1.056-1.035,0.799-1.735l-1.85-5.017c-0.256-0.695-0.143-1.539,0.235-1.872c0.405-0.345,1.923-1.045,2.596-0.733    l4.846,2.248c0.679,0.297,1.472,0,1.779-0.664l5.056-10.968c0.306-0.679,0.011-1.467-0.657-1.779l-4.848-2.237    c-0.671-0.307-1.114-1.927-1.114-2.441C147.324,131.897,147.874,131.268,148.574,131.011z M129.234,144.581    c-6.947,2.562-14.665-0.99-17.237-7.957c-2.56-6.938,0.998-14.67,7.956-17.24c6.938-2.557,14.666,0.99,17.229,7.961    C139.751,134.288,136.196,142.016,129.234,144.581z" fill="#51991d"/>
	</g>
</g>
<g>
</g>
<g>
</g>
<g>
</g>
<g>
</g>
<g>
</g>
<g>
</g>
<g>
</g>
<g>
</g>
<g>
</g>
<g>
</g>
<g>
</g>
<g>
</g>
<g>
</g>
<g>
</g>
<g>
</g>
</svg>
