<?xml version="1.0" encoding="iso-8859-1"?>
<!-- Generator: Adobe Illustrator 19.0.0, SVG Export Plug-In . SVG Version: 6.00 Build 0)  -->
<svg version="1.1" id="Layer_1" xmlns="http://www.w3.org/2000/svg" xmlns:xlink="http://www.w3.org/1999/xlink" x="0px" y="0px"
	 viewBox="0 0 511.999 511.999" style="enable-background:new 0 0 511.999 511.999;" xml:space="preserve">
<g>
	<path style="fill:#BA3838;" d="M487.69,272.579c-2.351-5.089-6.608-8.536-9.317-13.264c-1.415-2.469-2.764-4.649-4.231-7.079
		c-0.027-0.14-0.111-0.412-0.294-0.903c-0.51-1.369-1.056-2.728-1.656-4.061c-2.185-4.848-5.773-8.854-7.433-13.944
		c-3.276-10.045-6.177-20.539-10.651-30.139c-2.269-4.869-4.995-9.399-7.716-14.011c-2.93-4.967-4.184-10.599-7.434-15.353
		c-2.609-3.816-3.726-7.993-5.694-12.224c-2.438-5.239-4.957-10.321-7.859-15.303c-5.529-9.493-9.272-20.055-15.019-29.385
		c-5.458-8.861-9.685-18.189-15.129-27.031c-6.022-9.78-10.078-20.809-16.617-30.245c-1.727-2.493-3.683-4.838-5.705-7.131
		c-0.498-2.696-1.106-5.383-1.91-8.062c-1.84-6.129-3.68-12.359-5.674-18.426c-1.68-5.113-0.491-10.018-2.741-15.285
		c-1.529-3.578-6.021-5.341-9.587-5.499c-5.192-0.231-9.853,2.134-14.367,4.649c-3.891-0.442-7.616-0.537-11.555-0.333
		c-5.469,0.284-10.953,1.152-16.421,2.078c-0.329-0.102-0.667-0.188-1.02-0.231c-4.03-0.498-7.961-1.92-12.118-2.071
		c-4.162-0.151-8.447,0.473-12.594,0.747c-7.596,0.499-15.351,1.27-22.849,2.708c-8.454,1.624-16.837,4.016-25.176,6.147
		c-8.333,2.13-16.844,3.346-25.144,5.505c-16.723,4.351-33.268,8.862-50.322,11.771c-0.251,0.043-0.509,0.086-0.761,0.128
		c-3.391,0.426-6.772,1.013-10.135,1.595c-10.268,1.777-20.597,3.151-30.813,5.223c-10.285,2.086-19.914,6.129-30.042,8.793
		c-4.442,1.169-9.368-0.049-13.509,2.303c-3.369,1.914-6.663,4.464-10.058,6.457c-1.955,1.148-4.043,1.638-5.928,3.03
		c-2.005,1.481-3.897,3.143-5.812,4.738c-3.734,3.112-7.673,6.128-10.644,9.98c-5.689,7.379-9.927,15.195-12.953,23.881
		c-1.564,4.491-4.213,8.49-5.374,13.168c-0.675,2.719-0.798,5.675-1.74,8.322c-0.76,2.134-2.053,4.068-2.753,6.233
		c-1.22,3.767-1.235,8.097-2.016,12.002c-0.97,4.85-0.695,10.052,0.434,14.841c1.165,4.938,3.305,9.578,4.824,14.403
		c0.659,2.092,1.768,4.018,2.456,6.026c0.75,2.188,0.53,4.636,1.111,6.861c1.325,5.071,5.05,8.186,7.437,12.578
		c1.543,2.838,3.237,6.071,5.932,7.982c0.16,0.703,0.319,1.405,0.508,2.101c0.005,0.798-0.007,1.6-0.055,2.416
		c-0.239,4.148-1.249,8.053-0.781,12.227c0.398,3.547-0.081,7.287,1.292,10.674c1.33,3.282,4.32,7.103,6.376,10.042
		c2.599,3.714,6.055,5.812,9.647,8.364c4.808,3.419,10.394,5.792,12.985,11.33c6.729,14.392,8.926,30.473,14.875,45.141
		c2.777,6.846,5.261,13.751,9.401,19.945c0.922,1.38,2.008,2.805,3.193,4.225c0.365,2.933,0.767,5.831,1.217,8.901
		c-0.102,0.502-0.203,1.003-0.301,1.509c-1.293,6.735-2.038,13.589,1.787,19.701c3.249,5.194,7.902,10.548,12.658,14.385
		c1.369,1.104,2.766,1.974,4.187,2.708c1.281,3.75,3.009,7.374,5.641,10.361c0.498,5.844,0.997,11.643,2.99,17.284
		c3.214,9.103,4.698,18.897,7.016,28.265c2.177,8.794,5.355,21.119,14.458,25.148c3.075,1.361,6.158,1.394,8.831,0.533
		c0.687,0.932,1.398,1.845,2.153,2.725c2.125,4.817,6.728,8.635,12.085,9.281c0.758,0.455,1.551,0.864,2.394,1.203
		c2.002,0.806,4.19,1.258,6.455,1.518c1.158,2.071,3.202,3.678,6.288,4.402c3.723,0.873,7.424,0.662,11.2,0.75
		c3.563,0.083,6.605,0.837,10.195,0.17c8.056-1.497,16.552-0.662,24.549-2.484c3.647-0.831,7.044-2.354,10.782-2.847
		c2.691-0.354,5.225-0.279,7.68-0.629c4.057,3.407,11.382,0.747,12.531-4.392c1.255-5.62,1.109-11.427-1.599-16.601
		c-2.131-4.073-7.219-4.672-10.988-2.882c-6.247,2.968-13.138,4.453-19.869,5.927c-1.267,0.278-2.499,0.842-3.736,1.224
		c0.662-0.333-2.276-0.344-3.106-0.402c-3.151-0.221-6.859,0.497-10.012,0.71c-5.679,0.384-11.163,2.66-16.81,2.303
		c-0.296-0.146-0.602-0.283-0.927-0.397c-8.356-2.934-15.02-8.533-23.66-11.001c-0.043-0.048-0.077-0.09-0.126-0.141
		c-1.476-3.056-3.59-6.211-6.367-7.406c-0.338-0.145-0.68-0.254-1.022-0.346c-0.5-1.411-1.107-2.757-2.152-4.144
		c-0.17-5.572-0.084-11.007,0.607-16.735c0.977-8.086,1.794-16.084,2.89-24.107c1.139-0.611,2.269-1.247,3.375-1.951
		c3.913-2.493,7.087-5.756,10.279-9.077c1.497-1.557,2.974-3.137,4.447-4.723c2.772-1.014,5.51-2.299,8.043-3.361
		c6.128-2.569,12.092-5.477,18.141-8.218c12.205-5.531,25.791-9.708,38.887-12.496c13.581-2.891,27.431-3.828,40.922-7.203
		c6.067-1.518,12.244-2.406,18.214-4.287c8.44-1.335,16.86-2.843,25.258-4.589c19.469-4.045,39.075-7.82,58.423-12.349
		c9.536-2.232,19.199-3.695,28.694-6.141c4.173-1.076,7.748-2.849,11.677-4.421c2.709-1.084,5.554-1.727,7.494-4.067
		c0.208-0.03,0.415-0.063,0.622-0.093c2.883-0.204,5.788-0.716,8.65-1.374c0.184-0.032,0.37-0.059,0.553-0.093
		c5.242-0.944,10.189-2.131,15.021-3.96c4.458-1.126,9.422-2.55,13.373-4.775c6.772-0.401,13.533-8.794,14.123-14.739
		C493.195,282.533,489.837,277.228,487.69,272.579z"/>
	<path style="fill:#BA3838;" d="M476.434,385.071c-1.059-0.868-2.279-1.923-3.541-2.526c-0.486-0.31-1.014-0.472-1.569-0.531
		c-0.701-1.579-1.486-3.141-2.392-4.755c-2.141-3.817-4.759-5.024-7.792-7.899c-3.588-3.402-11.036-0.063-8.973,5.223
		c0.695,1.781,1.044,3.671,1.872,5.402c0.912,1.904,2.457,3.002,3.54,4.707c0.987,1.552,0.704,3.397,0.562,5.211
		c-0.802,0.351-1.544,0.814-2.221,1.396c-1.825,1.16-3.356,2.494-5.354,3.441c-4.265,2.02-8.249,4.23-12.873,5.188
		c-4.939,1.023-10.268,1.538-15.072,3.097c-4.181,1.356-8.118,3.443-12.233,4.982c-9.063,3.391-18.31,6.707-26.762,11.426
		c-0.388,0.216-0.686,0.51-0.927,0.836c-2.857,0.796-5.608,1.992-8.528,2.353c-3.04,0.376-6.134,0.644-9.191,0.825
		c-6.155,0.364-12.475,2.926-18.535,4.186c-6.863,1.427-13.51,2.873-20.226,4.876c-3.773,1.126-7.543,2.155-11.102,3.632
		c-0.516-0.19-1.06-0.32-1.728-0.344c-1.951-0.07-3.995,0.473-5.419,1.896c-0.059,0.059-2.255,3.683-1.407,2.01
		c-0.355,0.58-0.642,1.195-0.859,1.844c-0.031,0.101-0.052,0.169-0.074,0.239c-1.092,2.007-0.471,4.479,1.167,5.78
		c0.996,1.536,1.583,3.221,2.414,4.854c1.335,3.554,6.191,2.802,7.478-0.466c0.069-0.175,0.119-0.35,0.177-0.523
		c2.343,0.762,4.386,0.739,7.49-0.823c5.447-2.741,11.396-4.432,17.373-5.618c6.739-1.337,19.025-2.803,25.264-8.477
		c5.065-0.621,10.209-0.713,15.105-2.369c7.956-2.69,16.111-3.573,24.342-4.939c8.299-1.377,16.253-3.842,24.504-5.383
		c7.784-1.453,15.198-3.541,22.193-7.362c2.597-1.418,4.416-3.292,6.611-5.007c3.567,0.529,6.671-2.204,8.786-5.307
		c0.096-0.086,0.207-0.165,0.301-0.251c2.836,1.443,6.909,0.056,9.196-2.479C482.966,397.947,481.902,389.55,476.434,385.071z"/>
</g>
<g>
	<path style="fill:#821E1E;" d="M462.359,293.154c-8.28,2.353-16.392,4.788-24.384,7.993c-8.132,3.262-15.638,8.444-24.548,5.15
		c-2.731-1.009-5.001,0.292-6.216,2.339c-2.62,0.16-5.24,0.31-7.854,0.508c-14.742,1.111-29.487,2.083-44.157,3.985
		c-28.758,3.728-56.055,15.2-85.166,16.084c-3.809,0.115-5.603,3.163-5.415,6.063c-14.828,4.365-29.714,8.718-44.614,12.774
		c-3.063,0.833-6.098,1.743-9.118,2.696c0.139-1.228-0.093-2.394-0.846-3.447c-2.7-3.775-7.543-3.116-12.427-0.947
		c0.056-0.351,0.111-0.707,0.178-1.078c-0.118,0.771,0.655-1.583,0.782-2.005c0.921-3.041-2.294-6.807-5.53-5.53
		c-2.052,0.81-4.46,0.585-6.701,1.025c-0.335-2.015-0.723-4.026-1.153-6.032c2.136-3.462,1.136-8.975-2.53-10.869
		c-0.644-2.713-1.271-5.424-1.813-8.141c-2.11-10.581-5.799-20.956-8.841-31.304c-2.444-8.316-5.907-22.786-12.985-31.556
		c-2.436-6.689-5.532-13.104-7.631-19.916c-2.344-7.608-4.74-15.195-7.237-22.754c-4.817-14.578-10.084-29.001-14.939-43.556
		c-4.64-13.912-10.295-27.298-15.787-40.895c-2.819-6.977-6.59-13.435-10.004-20.121c-2.777-5.438-5.425-12.207-11.06-15.263
		c-1.132-0.613-2.376-0.779-3.565-0.612c-0.886-2.993-1.696-6.014-3.526-8.599c-1.406-1.988-3.648-3.459-6.124-4.266
		c-0.642-1.139-1.309-2.253-2.029-3.314c-5.612-8.278-16.873-10.768-24.337-3.023c-2.802,2.906-4.704,7.151-6.481,10.707
		c-1.284,2.569-4.742,7.071-6.763,10.373c-2.246,3.67-3.798,7.734-5.682,11.595c-1.266,2.595-2.576,5.186-4.076,7.656
		c-0.22,0.361-0.587,0.832-0.939,1.315c-4.779,1.638-8.572,6.141-7.68,11.468c-0.706,1.825-0.985,3.891-0.655,6.096
		c0.227,1.516,0.581,3.035,1.012,4.556c-0.257,1.629-0.499,3.238-0.499,4.745c-0.001,6.291,1.454,12.18,3.261,18.154
		c0.235,0.776,0.468,1.545,0.701,2.309c-2.179,2.649-3.1,6.43-1.287,10.404c5.619,12.321,8.769,25.419,13.143,38.156
		c1.755,5.112,2.779,10.447,3.955,15.657c0.638,2.829,1.788,5.751,3.451,8.255c0.229,1.618,0.844,3.191,1.927,4.592
		c2.08,2.691,5.798,4.414,9.26,3.823c1.354,4.697,3.697,8.929,8.303,10.5c0.231,0.528,0.461,1.056,0.691,1.583
		c0.3,7.502,4.094,15.109,6.876,21.834c3.735,9.033,6.678,18.316,10.632,27.265c4.577,10.361,9.323,20.626,13.779,31.044
		c1.473,3.443,4.373,5.021,7.526,5.223c-3.906,5.656-4.189,13.838-1.636,20.418c-0.246,4.07,1.561,7.81,4.621,11.584
		c3.611,4.457,6.98,9.198,13.18,9.59c2.828,8.259,5.422,16.575,7.691,25.025c1.679,6.252,3.693,12.407,5.756,18.54
		c0.968,2.876,1.928,5.752,2.876,8.635c0.509,1.548,0.941,3.211,1.512,4.762c0.661,2.81,1.476,5.541,2.664,8.044
		c0.454,0.957,1.037,1.769,1.711,2.456c1.549,2.425,4.12,3.805,6.872,4.207c1.015,2.376,2.591,4.83,4.181,6.775
		c1.92,2.351,3.969,3.438,6.307,4.396c1.454,1.727,3.122,3.742,5.548,4.955c2.772,1.385,5.469,1.604,8.11,3.245
		c2.942,1.829,6.11,3.217,9.409,4.276c3.006,0.965,5.391,2.389,8.34,3.513c3.828,1.457,7.358,1.128,11.347,1.262
		c3.29,0.111,6.518,1.045,9.864,0.889c3.09-0.144,6.059-0.679,9.132-0.808c3.774-0.158,6.762-2.194,10.095-3.169
		c3.979,0.326,7.375,0.063,11.596-1.655c3.022-1.23,6.404-3.037,9.741-3.918c4.225-1.115,8.208-2.622,11.285-5.922
		c2.064-2.213,4.566-5.786,3.308-8.912c-0.842-2.09-2.574-3.28-4.386-3.405c-3.468-1.232-6.59-1.197-10.352-0.799
		c-2.134,0.226-4.424,0.455-6.506,1.004c-1.082,0.247-2.114,0.64-3.095,1.179c-1.644,0.427-1.887,0.691-0.725,0.792
		c-1.556,0.455-3.577,0.682-5.217,0.839c-0.937,1.06-1.596,1.221-1.978,0.48c-1.497-0.486-3.032-0.773-4.609-0.862
		c-4.327-0.218-8.127,1.768-12.425,1.891c-3.377,0.098-6.263,0.989-9.56,0.635c-2.863-0.307-6.422,0.025-9.204-0.452
		c0.711,0.052-2.64-1.223-2.832-1.317c-3.942-1.927-8.22-2.534-11.967-4.804c-2.993-1.813-6.001-2.721-9.068-3.642
		c-0.917-1.021-1.996-2.18-2.848-2.785c-0.051-0.037-0.103-0.064-0.156-0.1c-3.483-6.998-5.925-14.478-4.862-22.302
		c1.557-11.473,4.986-22.303,9.333-32.938c4.428-2.471,9.071-4.704,13.575-6.902c2.484-1.212,4.612-2.847,7.006-4.17
		c3.094-1.709,6.687-2.591,9.964-3.898c3.487-1.39,6.718-3.323,9.861-5.397c4.13-0.831,8.255-1.692,12.366-2.566
		c16.965-3.611,33.858-7.963,50.572-12.579c16.412-4.531,33.076-7.674,49.811-10.724c7.764-1.415,16.465-2.47,23.872-5.182
		c4.094-1.499,7.956-3.179,12.2-4.269c3.854-0.99,7.689-1.742,10.992-4.027c0.203-0.14,0.385-0.292,0.552-0.453
		c14.31-1.413,28.556-2.904,42.463-6.41c4.037,0.839,8.208,0.927,12.195-0.03c8.454-2.03,16.478-5.768,24.999-7.761
		c8.597-2.011,17.064-4.092,25.705-5.944c5.916-1.268,15.993-2.935,16.998-10.359C501.39,282.191,468.24,291.483,462.359,293.154z"
		/>
	<path style="fill:#821E1E;" d="M466.355,401.718c-5.397-0.851-11.237,2.621-16.235,4.414c-2.612,0.937-4.699,2.124-7.142,3.315
		c-2.731,1.331-5.988,1.699-8.95,2.521c-14.359,3.987-28.709,7.174-43.413,9.605c-7.11,1.176-14.172,2.629-21.249,3.983
		c-7.54,1.442-14.605,4.139-22.033,5.85c-6.006,1.383-11.414,3.43-17.307,5.181c-7.129,2.118-13.35,6.238-20.446,8.435
		c-2.939,0.909-3.288,5.58,0,6.313c13.411,2.992,25.425-5.695,38.368-7.455c7.299-0.991,14.246-4.196,21.49-5.698
		c7.77-1.61,15.571-3.169,23.39-4.53c15.034-2.618,29.767-5.774,44.105-11.153c2.851-1.07,6.095-1.854,8.81-3.22
		c2.49-1.252,4.455-3.237,6.964-4.542c5.894-3.066,11.634-3.522,14.94-9.85C468.224,403.783,467.808,401.948,466.355,401.718z"/>
</g>
<path style="fill:#EAA9A9;" d="M358.604,134.529c-0.877-2.59-1.856-4.996-3.885-7.59c-2.014-2.574-3.904-5.264-5.881-7.869
	c-0.931-5.197-4.641-10.239-8.561-13.825c-0.118-0.302-0.245-0.602-0.389-0.897c-0.97-1.994-2.273-3.671-3.158-5.675
	c-0.84-1.901-1.344-3.653-2.63-5.333c-2.248-2.94-4.362-5.465-5.758-9.015c-1.277-3.246-1.856-7.004-3.787-9.989
	c-2.155-3.328-5.745-5.408-9.798-4.115c-0.472,0.151-0.9,0.339-1.302,0.549c-1.399-0.461-2.923-0.493-4.449-0.03
	c-0.128-0.065-0.361-0.168-0.743-0.348c-1.007-0.476-2.88-0.339-3.97-0.313c-3.029,0.073-5.909,1.044-8.873,1.512
	c-5.547,0.876-10.795,1.555-16.258,2.959c-10.757,2.765-21.942,3.938-32.67,7.09c-5.082,1.493-10.241,0.981-15.209,2.997
	c-4.579,1.858-9.049,3.77-14.077,3.653c-4.75-0.111-8.816-1.264-13.308,1.077c-3.482,1.813-6.015,4.001-7.657,7.235
	c-0.567-0.097-1.119-0.222-1.62-0.453c-1.444-0.663-2.772-2.039-4.167-2.99c-5.717-3.904-12.312,3.626-9.149,9.149
	c1.705,2.978,1.576,6.662,2.632,9.888c0.959,2.928,2.134,5.833,3.174,8.738c1.281,3.577,2.589,7.204,4.354,10.576
	c1.419,2.712,3.521,4.957,4.881,7.692c1.615,3.25,3.047,6.499,4.709,9.617c0.097,0.611,0.209,1.218,0.357,1.812
	c0.915,3.684,1.944,6.243,2.171,10.072c0.227,3.817,1.106,6.978,2.716,10.45c1.781,3.84,6.841,4.274,10.171,2.666
	c2.877-1.387,5.754-2.584,8.671-3.71c0.569,0.383,1.259,0.668,2.098,0.779c5.599,0.731,9.897,1.032,15.59,0.396
	c5.512-0.616,10.725-1.566,16.142-2.719c10.688-2.274,21.306-4.927,32.018-7.131c5.305-1.092,10.563-2.765,15.898-3.611
	c4.852-0.77,9.288-1.492,13.934-3.242c4.546-1.712,9.221-3.5,13.056-6.187c3.695-0.724,6.684-1.01,10.74-0.849
	c1.909,0.076,3.796,0.174,5.683-0.237c0.555-0.011,1.076-0.155,1.58-0.365C359.784,148.453,363.615,138.941,358.604,134.529z
	 M201.919,112.313c-0.076-0.166-0.147-0.335-0.225-0.502c-0.165-0.349-0.332-0.705-0.497-1.058c0.342,0.019,0.686,0.036,1.038,0.043
	C202.092,111.297,201.989,111.803,201.919,112.313z M230.996,130.189c-0.246,0.397-0.448,0.799-0.632,1.201
	c-0.203-0.487-0.382-0.989-0.497-1.524c-0.108-0.5-0.157-1.024-0.179-1.557c0.298-0.007,0.597-0.014,0.893-0.018
	c0.59-0.007,1.174-0.024,1.761-0.037C231.867,128.873,231.414,129.514,230.996,130.189z"/>
<g>
	<path style="fill:#FFC60B;" d="M363.859,29.359c-0.22-0.631-0.487-1.233-0.779-1.819c-1.551-5.271-4.772-10.721-5.918-14.687
		c-0.623-2.125-1.834-3.547-3.298-4.376c-1.607-3.405-5.435-5.883-9.313-4.552c-3.306,1.135-6.096,3.636-9.456,4.502
		c-2.706,0.697-4.023-0.726-6.74-1.494c-3.115-0.881-7.205,0.764-8.553,3.846c-2.456,0.815-4.516,3.258-3.692,6.195
		c1.039,3.699,3.504,5.113,5.674,7.969c2.672,3.52,4.123,7.559,7.188,10.92c1.684,1.845,4.918,2.779,7.305,1.931
		c0.227-0.081,0.434-0.177,0.648-0.267c1.4,0.983,2.763,1.818,3.98,2.42c2.248,1.114,5.148,1.18,7.644,0.327
		c1.913,1.342,3.847,2.357,6.107,2.272c0.474,0.596,0.963,1.182,1.48,1.745c1.276,1.39,4.07,1.53,5.32,0
		C365.307,39.568,365.924,35.304,363.859,29.359z M327.099,30.115C328.621,31.924,326.821,32.529,327.099,30.115L327.099,30.115z"/>
	<path style="fill:#FFC60B;" d="M491.956,286.941c-1.13-1.695-3.061-3.243-5.22-3.268c-0.244-6.436-3.491-13.357-6.133-18.789
		c-1.519-3.125-4.892-4.231-8-3.679c-1.525-0.869-3.476-1.057-5.492-0.015c-7.652,3.954-10.762,17.014-14.284,24.008
		c-2.666,5.293-6.507,8.566-5.536,15.001c0.439,2.91,1.241,5.293,1.45,8.224c0.209,2.935,1.279,5.346,3.447,7.335
		c2.3,2.109,5.574,2.612,8.331,1.075c2.301-1.283,3.659-3.235,5.065-5.208c3.808,1.298,9.24,0.184,11.018-3.9
		c0.193-0.441,0.398-0.881,0.611-1.319c1.979,0.269,4.037-0.102,5.884-1.228c1.164-0.71,2.229-1.656,3.286-2.507
		c0.043-0.034,0.057-0.046,0.093-0.075c0.371-0.278,0.738-0.56,1.084-0.864C491.298,298.445,495.168,291.754,491.956,286.941z"/>
	<path style="fill:#FFC60B;" d="M132.673,163.091c-1.722-4.476-4.186-8.943-8.287-11.672c-0.764-0.509-4.542-2.517-4.268-1.839
		c-1.281-1.494-2.143-3.249-4.016-4.42c-4.112-2.572-9.372-2.467-13.441,0.114c-1.96,1.243-3.122,2.62-5.211,3.491
		c-2.559,1.067-5.308,1.34-7.828,2.708c-4.14,2.248-8.294,4.996-12.315,7.459c-3.628,2.223-5.859,5.499-8.549,8.683
		c-0.882,1.044-1.806,2.124-2.734,3.233c-2.691-0.401-5.493,0.373-7.672,2.473c-3.117,3.004-4.079,7.487-4.367,11.799
		c-1.882,0.838-3.541,2.274-4.663,4.321c-1.837,3.347-1.933,7.974-1.574,12.372c-0.215,0.426-0.402,0.868-0.521,1.347
		c-0.512,2.052-0.624,4.089-0.487,6.117c-0.042,0.203-0.056,0.418-0.055,0.637c-0.004-0.002-0.008-0.005-0.012-0.007
		c-0.606,5.877,0.075,13.347,2.596,19.639c-0.703,2.857-1.32,5.75-1.818,8.705c-1.161,6.888,8.706,10.038,10.756,3.357
		c1.008,0.404,2.081,0.623,3.167,0.593c0.676-0.019,1.714-0.125,2.362-0.317c2.728-0.808,5.729-3.204,6.205-6.205
		c1.046-6.592,2.607-13.693,5.164-20.316c0.068-0.1,0.133-0.202,0.202-0.302c4.461-6.458,10.071-11.918,15.715-17.331
		c5.207-4.993,9.994-10.229,16.308-13.843c6.539-3.742,13.898-5.541,20.537-8.983C131.619,172.961,134.254,167.201,132.673,163.091z
		"/>
</g>
<g>
	<path style="fill:#CC9809;" d="M134.631,168.938c-0.956-2.479-1.994-3.471-3.961-4.961c-0.874-0.662-2.065-0.951-3.295-0.944
		c0.078-0.319,0.146-0.644,0.195-0.983c0.628-4.385-1.281-9.839-2.381-14.102c-1.489-5.773-8.559-8.66-13.676-5.647
		c-3.705,0.665-6.878,1.922-10.261,4.316c-4.014,2.841-8.407,4.751-12.52,7.415c-7.967,5.159-17.05,11.614-22.452,19.441
		c-3.052,4.421-5.702,8.993-8.435,13.592c-2.473,4.161-5.981,7.595-8.093,12.019c-2.235,4.68-2.927,9.556-3.199,14.496
		c-0.346,2.143-0.49,4.281-0.377,6.378c-1.057,4.106-1.558,8.242-0.535,12.591c0.572,2.43,2.092,4.211,4.01,5.333
		c-0.128,0.61-0.16,1.233-0.088,1.851c-0.174,0.378-0.336,0.762-0.478,1.154c-1.121,3.111,0.77,6.665,3.382,8.311
		c4.951,3.119,10.289,0.335,13.346-3.821c-1.618,2.199-0.479,0.682-0.017,0.191c0.561-0.596,1.152-1.155,1.749-1.715
		c1.764-1.655,3.327-3.286,3.955-5.742c1.009-3.944-0.901-7.393-4.088-9.021c0.08-0.132,0.163-0.267,0.24-0.397
		c0.554-0.921,1.17-1.825,1.816-2.717c0.598-0.785,1.201-1.567,1.805-2.348c3.661-4.493,8.146-8.662,12.04-12.662
		c5.806-5.965,12.24-11.538,19.02-16.376c5.743-4.1,14.704-7.61,18.264-13.939c0.569-1.012,0.283-2.483-0.8-3.049
		c-1.365-0.713-2.744-1.249-4.13-1.65c1.122-1.082,2.265-2.11,3.397-2.962c0.029,0.366,0.086,0.726,0.171,1.079
		c-0.058,4.705,4.633,7.937,9.026,6.834c3.787-0.951,7.039-4.704,7.039-8.617C135.296,171.055,135.051,170.029,134.631,168.938z
		 M102.832,169.656c-5.526,4.488-11.506,9.147-16.301,14.644c-2.776,2.033-5.397,4.232-7.804,6.41
		c0.825-1.375,1.665-2.745,2.568-4.088c4.137-6.155,11.005-11.257,17.476-15.412c2.845-1.827,5.859-3.201,8.71-4.925
		C105.56,167.524,103.914,168.777,102.832,169.656z"/>
	<path style="fill:#CC9809;" d="M170.595,289.042c-0.913-5.259-0.415-10.646-1.494-15.98c-1.218-6.02-9.215-9-14.233-5.79
		c-7.496,4.795-14.879,11.131-21.213,17.358c-6.148,6.045-10.325,12.3-15.203,19.297c-2.295,3.292-3.484,7.004-5.573,10.372
		c-2.123,3.426-4.32,6.58-5.954,10.291c-1.901,4.314-3.582,8.794-4.9,13.321c-0.334,1.147-0.606,2.337-0.864,3.539
		c-1.386,1.539-2.249,3.547-2.212,5.692c0.029,1.659,0.02,3.213-0.157,4.864c-0.241,2.248,0.509,4.139,1.809,5.569
		c0.001,0.049,0.007,0.096,0.007,0.145c0.218,6.082,5.488,8.818,10.126,8.171c1.467,0.882,3.283,1.059,4.913,0.083
		c4.717-2.828,8.809-8.538,12.167-12.848c2.467-3.167,3.778-6.827,5.957-10.153c1.588-2.426,3.319-4.669,4.902-7.078
		c6.095-5.62,12.309-11.12,18.27-16.866c3.645-3.513,5.62-5.072,9.46-7.13c4.037-2.165,6.998-6.049,7.084-10.785
		C173.561,296.9,171.299,293.096,170.595,289.042z"/>
</g>
<path style="fill:#E5E0AC;" d="M470.038,314.523c-1.833-5.022-9.852-2.275-12.957-0.749c-2.74,1.347-5.522,2.701-8.221,4.115
	c-2.542,1.331-4.371,3.416-6.479,5.269c-0.176,0.026-0.355,0.061-0.529,0.084c1.366-1.667,0.524-3.963-1.446-4.681
	c-3.132-1.142-6.109-0.281-9.33-0.412c-4.095-0.168-7.975,0.163-12.059,0.901c-7.596,1.374-15.628,2.918-22.71,6.023
	c-3.256,1.428-6.554,2.704-9.827,4.085c-3.145,1.325-6.531,2.001-9.594,3.484c-3.407,1.65-6.428,4.033-9.831,5.732
	c-2.646,1.321-5.755,2.125-8.352,3.602c-3.345,0.613-6.709,1.15-10.034,1.827c-0.164,0.033-0.323,0.078-0.487,0.113
	c-4.661,0.342-9.316,0.588-13.944,0.742c-22.507,0.745-44.218,6.928-66.312,10.379c-10.789,1.686-21.565,4.067-32.325,6.013
	c-8.875,1.605-15.94,5.43-23.69,9.749c-4.837,2.695-9.464,5.094-13.411,9.089c-3.534,3.577-6.688,7.59-9.831,11.525
	c-0.561,0.124-1.107,0.298-1.642,0.499c-7.521-1.073-15.204,7.301-17.135,13.678c-1.503,4.963-2.242,10.465-3.302,15.555
	c-1.185,5.693-0.283,10.725,3.382,15.313c6.386,7.997,18.97,16.124,29.094,17.956c4.881,0.883,13.213-0.874,18.603-4.862
	c9.727,0.031,19.378,0.906,29.033-0.958c11.235-2.168,21.25-6.154,31.812-10.393c2.197-0.882,4.372-1.814,6.539-2.761
	c1.157,0.276,2.298,0.53,3.471,0.692c0.579,0.605,1.308,1.132,2.238,1.509c7.69,3.113,17.799,0.427,24.8-3.54
	c3.559-2.017,8.119-3.582,11.146-6.326c0.851-0.773,1.531-1.687,2.109-2.612c2.752-0.345,5.513-0.634,8.239-1.214
	c2.803-0.597,5.242-1.78,7.661-2.974c5.988-0.943,11.988-1.991,18.062-2.914c9.377-1.423,17.838-5.482,26.838-8.149
	c2.98-0.883,7.375-1.894,9.631-4.089c0.59-0.574,1.519-2.15,1.963-3.246c2.31-0.945,4.672-1.732,7.167-2.154
	c5.619-0.951,10.797-2.698,16.293-4.137c2.776-0.726,5.607-1.151,8.403-1.784c1.486-0.297,2.954-0.667,4.403-1.113
	c0.289-0.043,0.531-0.087,0.747-0.13c3.002,1.69,6.431,1.873,9.451-0.456c3.12-2.407,4.586-7.433,2.18-10.921
	c-0.819-1.188-0.395-3.213-0.598-4.844c-0.366-2.939-1.552-4.211-2.77-6.67c-0.672-1.356-0.687-4.658-0.3-7.631
	c0.661-5.062,1.563-10.182,3.122-15.049c0.848-2.646,1.555-5.67,2.429-8.559c1.16-0.845,2.127-2.041,2.758-3.372
	c1.311-0.73,2.551-1.663,3.686-2.886c1.696-1.828,2.272-4.734,1.646-7.211c0.019-0.008,0.04-0.014,0.061-0.021
	C463.519,324.134,472.046,320.021,470.038,314.523z"/>
<g>
	<path style="fill:#BFB975;" d="M412.575,360.065c-3.771-2.096-6.785,0.093-10.457,1.314c-5.688,1.891-11.18,4.528-16.934,6.202
		c-5.222,1.519-9.785,4.409-14.992,5.793c-0.225-0.833-0.959-1.589-1.888-1.637c-7.092-0.365-14.882-0.85-21.931-0.22
		c-6.71,0.599-13.318,2.429-19.926,3.665c-14.23,2.66-28.059,7.084-41.932,11.147c-13.759,4.03-27.984,8.06-42.13,10.416
		c-14.389,2.396-29.022,5.087-43.107,8.912c-4.819,1.309-2.752,8.281,2.036,7.388c14.506-2.703,29.423-3.508,44.038-5.534
		c14.173-1.965,28.533-5.928,42.323-9.718c13.956-3.836,27.826-7.864,41.839-11.482c6.094-1.574,12.056-3.419,18.175-4.838
		c-0.72,3.066,1.873,7.169,6.079,6.495c5.928-0.95,11.538-2.868,17.383-4.023c5.643-1.114,10.633-3.399,16.2-4.681
		c5.473-1.261,10.665-3.323,15.758-5.679c4.871-2.254,6.709-5.081,10.058-8.923C414.368,363.282,414.316,361.033,412.575,360.065z"
		/>
	<path style="fill:#BFB975;" d="M365.241,350.596c-1.026,0.234-2.048,0.477-3.071,0.722c0.276-1.595-0.685-3.542-2.584-3.331
		c-14.276,1.592-28.716,0.982-43.002,3.128c-16.625,2.496-32.775,6.496-49.136,10.228c-4.799,1.095-2.681,8.009,1.999,7.254
		c17.713-2.855,35.224-5.776,53.124-7.351c0.945-0.083,1.891-0.153,2.838-0.221c-6.546,1.637-13.144,3.106-19.854,4.197
		c-20.537,3.34-40.9,7.185-61.366,10.964c-6.089,1.125-3.491,10.337,2.556,9.269c21.187-3.742,42.286-7.465,63.536-10.804
		c10.776-1.693,21.277-4.061,31.612-7.533c8.788-2.953,18.766-6.054,25.855-12.212C369.805,353.118,367.582,350.063,365.241,350.596
		z"/>
	<path style="fill:#BFB975;" d="M410.835,383.33c-6.28,1.5-12.663,3.179-18.922,4.923c-9.357,2.606-19.001,4.071-28.161,7.333
		c-5.336,1.901-10.713,3.673-16.085,5.468c0.285-0.193,0.574-0.383,0.876-0.565c1.403-0.852,0.837-3.119-0.844-3.115
		c-11.903,0.032-23.316,6.073-35.018,7.269c-13.128,1.341-25.874,4.773-39.068,5.567c-24.752,1.491-49.703,10.688-71.449,22.272
		c-2.602,1.386-0.808,5.469,1.985,4.71c12.035-3.267,24.271-6.429,36.431-9.195c6.413-1.459,12.831-2.914,19.317-4.018
		c6.437-1.097,12.78-0.952,19.245-1.491c12.413-1.032,25.124-4.01,37.245-6.803c1.312-0.302,2.601-0.711,3.879-1.173
		c5.654-0.465,11.272-1.153,16.911-2.43c10.838-2.454,21.721-4.764,32.469-7.582c10.576-2.771,21.439-4.257,32.033-7.044
		c5.994-1.577,13.258-3.257,14.182-10.3C416.215,384.472,413.054,382.8,410.835,383.33z"/>
	<path style="fill:#BFB975;" d="M426.245,343.954c-1.102,0.628-2.282,0.817-3.409,1.387c-1.178,0.596-2.386,1.157-3.559,1.759
		c-2.289,1.174-4.536,2.48-6.801,3.708c-4.013,2.174-0.371,8.466,3.585,6.134c2.552-1.504,5.38-2.819,7.647-4.741
		c1.071-0.908,2.197-1.901,3.022-3.044c0.763-1.059,1.092-2.405,1.562-3.629C428.746,344.343,427.226,343.395,426.245,343.954z"/>
</g>
<path style="fill:#9E6226;" d="M308.046,483.705c-0.326-0.78-0.681-1.466-1.069-2.105c0.496-4.145-0.29-8.498-1.549-12.775
	c0.214-0.588,0.372-1.205,0.422-1.865c0.275-3.569-1.365-7.184-2.581-10.46c-1.652-4.448-3.157-9.062-5.39-13.257
	c-0.336-0.632-0.818-1.625-1.413-2.775c-1.474-5.337-3.199-10.564-6.126-15.36c1.215-4.948-3.653-10.928-10.459-8.945
	c-1.447,0.422-2.835,1.165-4.206,1.787c-1.41,0.64-0.278,0.284-1.406,0.382c-2.796,0.243-5.523-0.17-8.294,0.559
	c-2.073,0.544-4.093,1.185-6.179,1.706c-3.074,0.768-5.5,4.543-4.773,7.733c-0.332,0.82-0.521,1.709-0.567,2.633
	c-0.073,1.449,0.405,2.726,1.012,4.005c0.273,0.578,0.76,1.111,1.325,1.564c0.597,2.719,1.524,5.46,2.212,7.947
	c1.28,4.622,4.347,9.83,4.647,14.618c0.017,0.857,0.177,1.62,0.439,2.299c0.185,3.58,0.733,7.13,2.597,10.076
	c0.253,0.401,0.546,0.737,0.854,1.043c-0.121,1.268-0.252,2.557-0.288,3.953c0.013,1.087,0.286,2.01,0.711,2.802
	c-0.667,2.224-1.985,4.206-2.813,6.406c-1.898,5.052-5.723,22.128,5.744,17.921c1.746-0.641,2.804-1.796,3.605-3.035
	c7.506,1.205,12.223-12.275,14.315-17.211c0.624-1.473,1.352-3.017,2.085-4.594c0.422,0.503,0.827,1.019,1.173,1.588
	c1.366,2.251,1.844,4.863,3.333,7.028c0.97,1.41,2.244,2.238,3.582,2.562c0.045,0.151,0.101,0.3,0.14,0.453
	c0.542,2.108,0.811,3.721,2.286,5.421c0.748,0.862,2.377,1.346,3.459,0.914C310.263,494.576,309.986,488.34,308.046,483.705z"/>
<path d="M499.545,281.949c-2.954-3.251-4.258-7.755-5.944-11.744c-2.223-5.261-4.9-10.283-7.462-15.381
	c-4.891-9.733-11.177-18.552-16.34-28.116c-5.385-9.974-11.166-19.694-16.657-29.606c-5.216-9.415-8.407-19.64-14.257-28.703
	c-2.865-4.438-5.664-8.702-7.474-13.687c-1.955-5.39-4.023-9.852-7.579-14.389c-6.779-8.645-8.639-19.353-14.177-28.661
	c-2.814-4.73-3.91-9.135-5.826-14.192c-1.864-4.921-5.082-9.182-7.779-13.659c-2.532-4.205-3.852-8.343-5.402-12.944
	c-1.41-4.183-4.168-7.688-5.277-11.964c-2.981-11.507-10.196-21.148-14.072-32.405c-0.877-2.549-0.977-5.267-2.005-7.768
	c-0.912-2.216-2.532-3.964-3.556-6.111c-1.915-4.02-2.684-8.171-5.806-11.547c-0.82-0.887-2.339-1.321-3.495-0.924
	c-3.54,1.213-7.546-0.189-11.248,0.139c-2.994,0.265-5.956,0.886-8.944,1.205c-2.809,0.301-5.605,0.68-8.412,0.994
	c-4.304,0.481-8.528-0.357-12.838-0.056c-7.464,0.521-14.789,2.299-22.237,2.993c-8.586,0.8-17.053,1.431-25.588,2.785
	c-16.818,2.669-33.582,6.059-50.169,9.914c-6.814,1.583-13.29,4.157-20.251,5.026c-8.572,1.071-17.042,2.969-25.522,4.599
	c-15.529,2.984-31.35,4.817-46.668,8.813c-6.972,1.819-13.86,3.777-20.93,5.211c-7.724,1.567-15.652,1.501-23.001,4.517
	c-12.665,5.202-25.833,12.623-35.772,22.099c-9.89,9.43-19.592,19.617-23.536,32.951c-2.304,7.787-5.966,14.97-8.001,22.939
	c-2.229,8.73-2.884,16.161-2.272,25.097c0.215,3.142-0.053,6.242,0.073,9.367c0.058,1.457,0.272,2.841,0.93,4.155
	c0.675,1.348,1.13,2.092,1.485,3.362c1.202,4.306,3.003,8.124,5.717,11.363c0.019,0.08,0.032,0.165,0.052,0.245
	c1.462,5.645,3.383,9.689,6.177,14.776c4.808,8.754,9.316,18.966,8.523,28.998c-0.813,10.285-0.184,19.799,9.802,25.263
	c3.961,2.167,7.049,5.2,11.24,7.156c2.279,1.064,5.235,2.066,6.991,3.986c2.024,2.213,2.6,5.885,3.241,8.728
	c2.726,12.107,5.279,23.575,10.574,34.862c2.236,4.767,4.025,9.705,6.181,14.505c2.583,5.751,6.129,10.91,9.026,16.489
	c1.561,3.005,3.841,6.205,3.343,9.461c-0.761,4.967-2.546,8.448-1.485,13.694c2.018,9.982,8.45,17.095,16.04,23.247
	c5.395,4.372,6.67,10.713,8.687,17.072c1.997,6.296,3.422,12.691,5.431,18.979c1.857,5.812,4.068,11.455,5.937,17.255
	c1.579,4.901,3.358,9.416,6.501,13.336c0.678,2.621,1.588,5.173,3.048,7.645c3.269,5.535,7.855,11.005,12.767,15.143
	c4.546,3.83,10.023,5.157,14.869,8.344c2.416,1.589,4.36,3.668,6.948,5.033c2.964,1.563,6.263,2.739,9.393,3.913
	c12.701,4.763,26.307,2.249,39.246-0.132c6.379-1.174,12.919-2.462,19.1-4.461c3.378-1.094,6.617-2.578,10.004-3.647
	c2.964-0.934,6.006-1.133,8.679-2.786c1.053-0.651,1.57-1.705,1.588-2.769c0.445,5.529,0.1,11.275-0.921,16.384
	c-1.148,5.743-5.209,12.849-3.093,18.75c4.005,11.166,15.714,0.379,20.438-3.96c4.394-4.036,8.826-8.234,11.121-13.848
	c1.113-2.723,1.872-5.647,2.395-8.615c4.203,8.842,11.524,20.439,18.897,16.307c5.769-3.232,4.201-13.656,3.514-18.843
	c-0.675-5.095-1.463-10.309-2.383-15.479c1.768-0.339,3.596-0.516,5.296-0.972c4.222-1.133,8.265-2.969,12.471-4.195
	c8.956-2.609,18.044-4.8,27.028-7.323c17.574-4.933,34.793-10.551,52.498-15.052c18.353-4.666,36.94-8.892,55.071-14.347
	c6.571-1.977,14.114-4.171,18.769-9.565c3.942-4.565,8.156-11.959,7.176-18.153c-0.971-6.141-5.69-12.281-10.564-15.956
	c-3.195-2.408-8.271-4.365-12.023-7.13c-0.046-0.398-0.208-0.789-0.515-1.142c-0.175-0.54-0.459-1.039-0.842-1.525
	c-0.21-0.266-0.315-0.447-0.707-1.057c-0.648-1.007-1.279-2.005-1.864-3.049c-0.228-0.581-0.556-1.123-1.041-1.749
	c-0.316-0.407-0.632-0.811-0.958-1.208c-0.959-1.17-2.627-1.47-4.085-1.132c0.141-2.322,0.477-4.694,1.007-7.243
	c2.657-12.799,9.355-24.187,16.848-34.821c6.189-1.48,12.119-3.622,16.965-8.08c5.979-5.501,10.316-12.957,9.327-21.201
	C501.433,285.802,501.092,283.65,499.545,281.949z M318.884,13.973c7.064-0.128,13.69-1.064,20.658-2.282
	c3.761-0.657,7.279-2.087,11.073-2.562c1.91-0.239,3.645-0.515,5.345-1.041c1.347,3.041,1.468,6.836,2.676,9.832
	c1.91,4.736,1.763,9.511,3.313,14.397c1.097,3.46,2.486,6.802,3.936,10.113c-5.764-1.063-11.577-1.374-17.301-2.975
	c-5.92-1.657-10.652-4.907-15.966-7.834c-5.331-2.937-10.508-5.123-13.709-10.634c-1.319-2.274-2.345-4.591-3.51-6.807
	C316.561,14.073,317.722,13.994,318.884,13.973z M116.856,372.711c-1.372-1.089-2.82-2.104-4.288-3.141
	c-4.89-3.452-8.333-7.833-10.107-13.652c-1.953-6.405,1.451-7.386,4.068-12.133c1.216-2.206,1.393-4.383,1.016-6.525
	c3.289-7.632,6.632-15.258,10.096-22.833c1.503-3.286,2.501-6.914,4.429-9.968c2.091-3.312,4.921-6.249,7.336-9.333
	c4.726-6.035,10.822-10.423,15.668-16.314c0.902-1.097,0.43-3.208-1.28-3.092c-7.048,0.483-14.326,7.839-18.661,12.928
	c-2.673,3.138-5.374,6.277-7.955,9.492c-2.836,3.532-4.174,7.175-6.059,11.229c-2.72,5.845-5.347,11.714-7.967,17.593
	c-4.622-8.7-9.786-17.022-14.072-25.942c-2.37-4.931-5.367-9.484-7.94-14.299c-3.352-6.273-5.123-13.099-6.642-20.005
	c-0.611-2.776-1.161-5.698-2.073-8.464c1.02-0.811,1.084-2.515,0.359-3.641c0.838-2.848,2.048-5.49,2.791-8.396
	c0.928-3.634,1.139-7.386,2.537-10.896c1.195-3.003,2.033-5.934,3.118-8.944c1.304-3.616,4.409-7.694,6.36-11.141
	c4.323-7.645,11.732-14.074,18.032-20.074c6.214-5.919,13.85-10.196,19.973-16.065c1.284-1.23,0.275-3.364-1.412-3.408
	c-9.574-0.252-18.159,7.22-24.954,13.08c-7.207,6.215-16.141,12.652-20.93,21.036c-1.402,2.454-2.401,4.806-4.018,7.16
	c-1.264,1.84-2.392,3.497-3.075,5.663c-1.065,3.377-2.068,6.548-3.314,9.884c-1.713,4.586-1.689,9.494-2.789,14.197
	c-0.094,0.401-0.172,0.782-0.248,1.163c-1.884-1.396-3.904-2.64-5.83-3.988c-2.072-1.451-3.206-3.246-4.953-4.961
	c-1.494-1.466-3.905-2.177-5.213-3.749c-2.996-3.601-1.386-10.145-1.053-14.33c0.272-3.409,0.144-6.826-0.855-9.984
	c2.121-3.607,3.464-7.682,5.612-11.769c4.996-9.5,10.957-19.319,17.327-27.972c5.839-7.93,16.452-13.352,25.275-17.343
	c4.402-1.991,12.848-4.568,11.958-10.671c-0.321-2.199-3.075-2.238-4.424-1.167c-2.435,1.932-6.161,2.067-9.045,3.029
	c-4.024,1.341-8.187,2.989-11.772,5.274c-7.547,4.811-14.562,8.899-19.9,16.255c-5.932,8.175-11.345,17.294-15.873,26.302
	c-1.63,3.243-2.978,6.454-3.872,9.94c-2.571-4.044-4.549-8.296-7.069-12.545c-1.637-2.76-3.76-5.17-5.406-7.913
	c-0.288-0.48-0.538-0.975-0.793-1.469c0.499-1.159,0.456-2.582-0.518-3.672c-4.864-5.437-3.055-11.621-4.938-17.98
	c-0.341-1.153-0.503-1.321-0.573-1.136c-0.011-0.202-0.023-0.432-0.039-0.703c-0.051-0.852,0.169-1.832,0.195-2.678
	c0.114-3.636-0.358-7.286-0.466-10.917c-0.416-13.993,6.798-26.11,10.536-39.117c3.588-12.485,14.574-23.125,24.312-31.339
	c5.081-4.287,11.133-6.999,16.871-10.266c1.318-0.75,2.603-1.475,3.885-2.174c0.247,7.342,5.151,15.498,8.209,21.615
	c2.2,4.402,4.951,8.398,7.376,12.667c2.657,4.675,4.235,9.893,6.47,14.776c4.608,10.066,11.431,18.88,16.507,28.689
	c2.244,4.338,3.824,8.761,6.672,12.764c3.301,4.637,6.209,8.528,7.955,14.063c7.262,23.02,13.908,46.375,20.335,69.65
	c3.216,11.645,6.746,23.197,10.155,34.785c3.13,10.638,5.562,21.737,9.378,32.146c0.695,1.896,1.564,3.672,2.505,5.405
	c-8.841,1.661-15.395,3.61-22.052,10.538c-6.689,6.962-12.413,14.553-17.469,22.767c-2.715,4.41-5.099,9.058-7.899,13.402
	c-2.187,3.391-4.725,6.455-6.385,10.168C118.626,367.296,117.595,369.905,116.856,372.711z M259.569,469.036
	c-4.56-2.916-10.111-0.626-14.797,1.033c-5.872,2.078-11.683,3.76-17.836,4.814c-12.125,2.077-26.688,4.723-38.725,1.289
	c-5.699-1.626-10.46-3.949-15.23-7.368c-4.665-3.343-10.45-4.341-14.983-7.928c-4.359-3.451-9.121-7.759-12.596-12.339
	c2.843-1.693,4.533-5.14,2.139-8.416c-3.052-4.175-4.139-9.152-5.88-13.942c-1.902-5.234-3.923-10.38-5.793-15.631
	c-1.988-5.583-3.023-11.477-5.284-16.959c-2.217-5.374-5.307-10.612-8.527-15.445c-0.125-0.187-0.263-0.357-0.392-0.537
	c1.563-3.518,2.937-7.174,4.762-10.633c2.021-3.831,4.912-7.092,7.137-10.793c2.188-3.641,4.207-7.365,6.46-10.976
	c4.989-7.996,10.538-15.141,16.963-22.033c5.312-5.699,12.232-8.62,18.083-13.508c1.386,2.387,2.84,4.74,4.104,7.244
	c2.739,5.429,4.377,11.306,6.939,16.814c2.495,5.362,5.259,10.776,8.189,15.91c2.509,4.396,6.178,6.996,9.3,10.731
	c2.622,3.137,6.624-0.386,6.132-3.57c-0.544-3.523-3.019-6.177-4.867-9.108c-2.873-4.559-5.279-9.392-7.801-14.153
	c-4.761-8.988-7.458-18.769-12.953-27.397c-5.891-9.253-7.628-20.818-11.03-31.146c-3.552-10.789-7.417-21.476-11.085-32.227
	c-7.765-22.755-15.624-45.638-22.079-68.806c-1.311-4.705-2.291-9.511-4.109-14.06c-1.746-4.367-4.502-7.789-7.201-11.571
	c-5.681-7.961-9.271-17.795-14.239-26.295c-3.35-5.733-6.599-11.481-9.058-17.662c-1.966-4.942-3.78-9.806-6.618-14.327
	c-3.067-4.888-5.914-9.698-8.567-14.833c-1.324-2.564-2.526-5.253-3.959-7.757c-1.573-2.75-4.213-5.034-5.075-8.129
	c4.004-1.985,8.08-3.483,12.873-3.876c14.386-1.179,28.047-6.388,42.099-9.253c14.573-2.971,29.4-4.741,44.041-7.363
	c6.832-1.223,13.61-2.354,20.493-3.218c7.509-0.943,14.645-3.886,22.029-5.51c15.173-3.338,30.366-6.454,45.68-9.076
	c8.862-1.517,17.684-2.339,26.581-3.485c5.324-0.686,10.692-1.977,16.065-2.807c1.17,4.285,1.705,8.8,4.357,12.556
	c3.614,5.119,9.437,7.597,14.647,10.695c11.292,6.713,23.903,12.846,37.539,10.755c0.389-0.059,0.723-0.193,1.008-0.377
	c1.97,4.504,3.806,9.044,4.93,13.835c0.964,4.114,3.314,7.363,4.804,11.232c1.758,4.568,2.611,9.22,4.87,13.648
	c2.248,4.404,5.305,8.387,7.448,12.838c2.373,4.932,2.81,10.329,5.53,15.221c2.652,4.767,4.944,9.201,6.806,14.347
	c1.881,5.202,3.957,10.461,7.077,15.061c3.197,4.715,6.288,8.353,8.193,13.822c1.706,4.904,3.904,9.364,6.672,13.757
	c2.785,4.42,5.746,8.691,7.727,13.552c2.183,5.353,4.307,10.637,7.001,15.769c5.278,10.054,11.278,19.702,16.548,29.765
	c4.187,7.993,9.074,15.536,13.558,23.335c-0.264,0.15-0.525,0.306-0.779,0.486c-2.569,1.832-4.464,4.78-6.68,7.017
	c-2.164,2.185-4.389,4.37-6.184,6.88c-2.093,2.929-2.706,5.893-4.118,9.114c-1.072,2.444-3.145,4.243-4.287,6.677
	c-1.336,2.849-2.067,6.165-2.753,9.208c-1.046,4.637-2.836,11.091-1.43,16.003c-1.955,0.623-3.911,1.247-5.894,1.787
	c-4.894,1.334-9.624,1.409-14.619,1.797c-9.571,0.745-19.232,3.749-28.254,6.863c-9.286,3.205-18.491,4.554-27.959,6.88
	c-4.571,1.123-9.053,2.577-13.47,4.202c-2.361,0.869-4.7,2.001-7.124,2.682c-2.808,0.789-5.739,0.782-8.585,1.392
	c-4.071,0.873-7.671,3.166-11.641,4.413c-4.57,1.435-9.247,2.59-13.95,3.491c-9.449,1.809-19.191,3.182-28.712,4.644
	c-5.114,0.786-10.21,1.172-15.259,2.387c-5.143,1.237-10.123,3.051-15.258,4.341c-3.998,1.004-7.884,1.85-11.658,3.294
	c-1.421-0.102-2.847-0.134-4.288,0.061c-9.502,1.283-19.305,6.006-28.277,9.314c-15.734,5.802-32.573,14.024-41.845,28.872
	c-4.329,6.932-4.855,14.962-5.056,22.896c-0.221,8.685-0.152,16.264,3.84,24.187c6.787,13.464,25.11,17.715,38.984,17.527
	c0.855-0.012,1.538-0.292,2.062-0.723c3.899,0.193,7.815,0.323,11.582,0.07c7.083-0.477,13.893-2.536,20.72-4.333
	c3.797-1,7.617-1.939,11.524-2.392c2.578-0.298,4.293-0.409,5.699-2.153c1.296,3.868,2.588,7.736,3.664,11.66
	c0.708,2.587,1.164,5.365,1.426,8.204C260.925,470.416,260.429,469.585,259.569,469.036z M306.552,490.244
	c-0.139-0.099-0.524-0.188-1.078-0.563c-1.78-1.207-3.338-3.025-4.673-4.698c-3.526-4.419-6.262-8.845-9.068-13.724
	c-1.295-2.251-4.187-0.598-3.88,1.636c1.695,12.315-9.592,19.895-18.43,26.126c-0.657,0.464-1.67,1.001-2.649,1.573
	c0.188-1.05,0.34-2.131,0.443-2.543c1.455-5.783,2.294-11.217,2.425-17.176c0.134-6.032,0.042-12.069-1.523-17.935
	c-1.711-6.414-4.593-12.478-6.649-18.786c-1.739-5.337-3.58-11.624-6.923-16.214c-0.341-0.47-0.713-0.909-1.1-1.335
	c2.481-0.578,4.871-1.369,7.216-2.377c5.121-2.202,10.242-3.528,15.5-4.837c0.074-0.009,0.146-0.023,0.22-0.032
	c3.382-0.43,6.753-0.9,10.122-1.393c1.091,1.341,1.499,4.303,2.215,5.846c3.293,7.094,7.191,13.76,10.014,21.1
	c1.367,3.556,2.278,7.148,3.006,10.785c-0.934,0.549-1.862,1.184-2.808,1.941c-4.224,3.381,0.114,8.892,4.57,8.221
	c0.01,0.056,0.018,0.112,0.027,0.168c1.07,6.42,3.13,12.712,3.264,19.268C306.81,486.088,306.968,489.007,306.552,490.244z
	 M465.285,386.665c0.185-2.719-1.174-5.522-4.591-6.584c0.544,0.169-0.71-1.455-1.11-2.552c-0.692-1.892-1.04-3.922-1.522-5.872
	c-0.149-0.599-0.266-1.178-0.388-1.759c0.209,0.206,0.412,0.418,0.634,0.611c1.133,0.987,2.599,1.934,4.082,2.212
	c1.751,2.684,4.211,4.984,6.743,7.015c2.366,1.896,5.159,3.521,7.021,5.973c3.386,4.46,3.723,8.516,0.806,13.119
	c-2.457,3.876-4.237,5.971-8.483,7.875c-4.835,2.168-9.876,3.974-14.908,5.624c-10.818,3.547-21.827,6.549-32.874,9.291
	c-10.683,2.652-21.381,5.324-32.034,8.089c-10.489,2.723-20.626,6.675-31.055,9.625c-10.753,3.041-21.668,5.599-32.37,8.804
	c-4.971,1.488-9.693,3.589-14.802,4.555c-0.433,0.082-0.845,0.17-1.258,0.259c-0.151-0.672-0.283-1.36-0.441-2.026
	c-0.897-3.787-2.169-7.51-3.657-11.166c1.828-0.282,3.77-0.506,4.251-0.622c2.898-0.695,5.875,0.168,8.623-0.59
	c6.049-1.669,12.1-3.356,18.334-4.734c15.474-3.418,30.913-7.129,45.985-12.056c14.813-4.843,29.255-11.212,44.213-15.518
	c11.789-3.393,23.405-7.08,34.415-12.205c1.48,0.199,3.016-0.372,3.915-2.038c0.16-0.296,0.321-0.593,0.48-0.889
	C466.173,389.489,466.036,387.893,465.285,386.665z M445.737,356.999c-1.33,7.311-0.296,14.38,1.062,21.604
	c0.629,3.344,1.733,6.79,3.696,9.486c-2.177,1.062-4.376,2.123-6.804,2.87c-6.946,2.133-13.869,4.329-20.832,6.405
	c-15.265,4.551-30.025,11.04-45.173,16.023c-14.712,4.839-29.765,8.577-44.852,12.032c-3.723,0.852-7.475,1.587-11.191,2.469
	c-1.279,0.303-2.795,0.483-3.987,1.057c-0.579,0.279-1.755,1.421-2.26,1.595c-2.109,0.726-4.218,0.267-6.436,1.306
	c-2.034,0.952-3.973,2.095-5.929,3.198c-1.942-4.239-4.087-8.388-6.205-12.424c-0.876-1.668-1.577-3.802-2.412-5.878
	c1.053-0.168,2.108-0.32,3.161-0.492c28.766-4.711,57.231-10.538,85.147-18.99c1.751-0.53,1.423-3.155-0.432-3.193
	c-6.375-0.128-12.611,1.812-18.745,3.34c-6.701,1.67-13.472,2.933-20.15,4.716c-14.372,3.837-29.053,6.117-43.712,8.587
	c-2.609,0.44-5.216,0.858-7.823,1.272c-1.189-1.507-2.712-2.596-4.838-2.822c-3.182-0.338-6.455,1.224-9.485,1.95
	c-4.78,1.145-9.534,2.004-14.172,3.704c-3.251,1.192-6.374,2.791-9.663,3.881c-2.298,0.456-4.596,0.899-6.895,1.34
	c-0.782,0.077-1.529,0.153-2.246,0.282c-0.711-0.384-1.419-0.764-2.115-1.142c-1.135-0.617-2.375,0.88-1.406,1.824
	c0.055,0.053,0.112,0.106,0.169,0.158c-1.353,0.282-2.703,0.567-4.05,0.882c-3.701,0.867-7.443,1.664-11.124,2.602
	c-3.425,0.873-6.644,2.747-10.167,3.176c-1.44,0.175-1.537,2.33,0,2.322c5.971-0.032,12.181-1.536,18.046-2.627
	c1.58-0.294,3.158-0.594,4.737-0.892c0.699,2.005,2.917,3.498,4.993,1.953c1.06-0.789,2.376-1.1,3.756-1.261
	c0.351,0.464,0.685,0.937,0.971,1.437c2.098,3.659,3.155,8.286,4.314,12.301c0.316,1.096,0.65,2.186,0.991,3.275
	c-0.439-0.144-0.896-0.216-1.362-0.171c-11.604,1.136-22.301,6.313-33.833,7.488c-5.361,0.546-10.765-0.012-16.13,0.471
	c-0.667,0.059-1.524,0.216-2.473,0.401c-5.135-1.845-10.256-3.859-15.263-5.901c-5.02-2.047-8.107-5.148-10.333-10.085
	c-2.937-6.518-2.102-13.967-1.945-20.944c0.164-7.33,2.041-13.159,7.161-18.469c4.766-4.94,9.667-9.864,15.581-13.43
	c6.821-4.114,14.629-6.731,22.026-9.603c6.903-2.681,13.724-5.809,20.717-8.223c3.292-1.136,6.782-1.435,10.053-2.545
	c0.805-0.273,1.58-0.675,2.344-1.127c2.537-0.399,5.076-0.783,7.587-1.31c4.434-0.932,8.71-2.46,13.168-3.309
	c5.118-0.976,10.319-1.088,15.464-1.851c9.908-1.47,20.001-2.465,29.833-4.344c9.471-1.809,18.44-6.01,27.928-6.902
	c10.198-0.957,19.788-5.87,30.066-7.14c10.431-1.289,19.842-3.848,29.968-6.59c4.749-1.286,9.628-2.179,14.478-2.994
	c4.841-0.814,9.733-0.366,14.605-1.012c10.04-1.33,19.65-5.2,29.575-7.274c0.988-0.207,1.983-0.403,2.98-0.597
	C455.17,329.002,448.466,341.998,445.737,356.999z M486.72,293.32c-2.36,3.178-4.722,6.337-8.461,7.984
	c-8.288,3.648-18.44,4.222-27.231,6.395c0.654-3.831,0.229-8.18,0.934-11.816c0.528-2.726,1.006-5.856,2.173-8.403
	c0.99-2.161,2.688-3.859,3.639-6.053c1.127-2.6,1.358-5.43,2.734-7.953c1.511-2.769,3.774-4.956,5.782-7.345
	c1.856-2.207,3.207-4.74,4.988-6.972c0.187-0.234,0.389-0.458,0.593-0.678c0.808,1.48,1.6,2.972,2.36,4.483
	c4.644,9.244,7.557,20.276,15.4,27.213C488.599,291.175,487.568,292.178,486.72,293.32z"/>
<path d="M213.505,178.726c3.103-0.842,5.543-0.819,8.698-0.994c2.678-0.149,5.257-1.224,7.905-1.602
	c3.44-0.491,6.939-0.162,10.4-0.607c14.353-1.852,28.672-4.436,42.937-6.869c13.996-2.387,27.857-5.379,41.555-9.116
	c7.006-1.911,14.022-3.546,21.166-4.851c3.624-0.662,7.247-1.611,10.939-1.719c3.45-0.101,6.58,0.264,10.025-0.245
	c1.325-0.195,2.398-1.552,2.75-2.75c1.835-6.248-2.754-12.119-6.096-16.951c-5.071-7.336-7.125-16.054-11.138-23.954
	c-4.251-8.369-11.414-15.147-16.061-23.381c-3.578-6.341-5.731-15.756-11.499-20.478c-1.279-1.047-2.871-1.406-4.376-0.565
	c-2.318,1.297-5.246,0.077-7.672,0.023c-2.228-0.05-4.466,0.351-6.665,0.666c-5.541,0.792-10.827,2.31-16.253,3.62
	c-11.326,2.734-22.965,3.615-34.399,5.746c-23.744,4.427-46.779,14.175-70.92,15.636c-0.656,0.039-1.115,0.333-1.391,0.731
	c-0.374-0.795-1.097-1.442-2.175-1.568c-1.932-0.226-2.181-0.156-4.077,0.258c-1.05,0.228-1.995,1.43-1.919,2.52
	c0.244,3.477,1.422,6.092,2.911,9.219c2.003,4.203,2.246,8.482,3.84,12.764c1.151,3.091,3.09,5.302,3.735,8.623
	c0.632,3.25,1.037,6.677,2.188,9.798c1.075,2.91,3.024,5.143,4.637,7.74c2.439,3.929,3.236,8.515,4.969,12.756
	c1.385,3.388,3.422,6.493,4.71,9.915c1.613,4.287,1.796,9.036,2.834,13.473c0.246,1.052,1.195,1.982,2.238,2.238
	C209.54,179.352,211.264,179.334,213.505,178.726z M205.261,154.106c-1.789-3.771-2.816-7.786-4.43-11.621
	c-1.505-3.576-3.841-6.14-5.908-9.333c-3.478-5.373-2.861-12.295-5.986-17.828c-2.062-3.651-2.607-6.525-3.72-10.456
	c-0.995-3.514-3.267-6.676-4.272-10.16c0.096-0.004,0.194-0.007,0.29-0.011c1.264,0.138,2.038-0.522,2.337-1.415
	c0.283,0.308,0.692,0.53,1.229,0.579c5.442,0.499,10.64,1.07,16.072,0.214c6.426-1.014,12.815-2.395,19.224-3.523
	c13.051-2.298,25.869-5.748,38.947-7.885c12.198-1.994,24.542-3.119,36.529-6.242c5.589-1.456,11.666-3.387,17.466-3.566
	c3.465-0.107,6.205,0.272,8.957-0.75c1.637,2.123,2.725,5.74,3.749,7.671c1.809,3.411,3.149,7.069,5.108,10.4
	c4.127,7.021,9.667,13.092,13.876,19.978c4.304,7.041,5.807,15.413,9.676,22.653c1.698,3.178,6.867,8.245,7.866,12.509
	c-2.414,0.014-4.845-0.271-7.256-0.055c-2.958,0.266-5.846,0.956-8.755,1.519c-6.773,1.312-13.483,2.664-20.146,4.48
	c-13.322,3.63-26.663,6.902-40.252,9.392c-13.337,2.444-26.74,4.583-40.13,6.71c-6.575,1.045-13.451,0.581-19.882,2.225
	c-3.092,0.79-5.812,0.654-8.914,1.021c-1.98,0.234-4.068,1.589-6.129,1.97c-0.529-3.162-0.815-6.386-1.674-9.462
	C208.244,159.94,206.669,157.072,205.261,154.106z"/>
<path d="M363.799,380.303c-2.813,1.297-5.896,1.335-8.886,1.945c-3.008,0.613-5.954,1.503-8.962,2.122
	c-6.413,1.322-12.768,2.013-19.059,3.919c-6.088,1.845-12.381,2.463-18.599,3.701c-6.947,1.384-13.795,2.967-20.821,3.955
	c-6.038,0.848-11.394,2.789-17.276,4.228c-5.966,1.46-12.123,1.994-18.157,3.091c-13.199,2.399-26.929,3.894-39.867,7.432
	c-0.581,0.159-0.334,1.01,0.247,0.895c13.245-2.62,27.046-3.42,40.439-5.356c6.687-0.966,13.515-1.431,20.059-3.202
	c6.351-1.719,12.313-3.119,18.864-4.051c13.453-1.914,26.952-4.805,40.062-8.268c6.266-1.656,12.792-2.15,19.103-3.654
	c4.618-1.1,10.821-1.41,14.428-4.716C366.533,381.284,365.062,379.721,363.799,380.303z"/>
<path d="M413.999,350.134c0.907-0.879-0.294-2.531-1.379-1.787c-2.606,1.787-7.843,2.445-10.834,3.476
	c-3.294,1.135-6.637,2.12-9.997,3.03c-7.442,2.015-14.862,3.789-22.404,5.346c-7.776,1.606-15.329,3.654-23.165,5.084
	c-8.597,1.569-17.129,3.476-25.705,5.147c-16.906,3.294-33.888,6.214-50.698,9.988c-8.187,1.839-16.311,4.025-24.565,5.546
	c-6.607,1.216-14.491,0.851-20.546,3.829c-1.539,0.757-0.193,2.99,1.336,2.286c3.802-1.751,9.934-1.734,14.039-2.237
	c3.526-0.432,7.028-0.943,10.522-1.599c8.297-1.558,16.481-3.701,24.745-5.424c17.237-3.595,34.623-6.403,51.905-9.766
	c8.162-1.588,16.296-3.336,24.511-4.638c7.736-1.227,15.174-3.446,22.855-4.968c7.486-1.482,14.981-3.579,22.292-5.77
	C402.217,356.086,409.894,354.112,413.999,350.134z"/>
<path d="M319.616,362.427c16.193-4.693,32.559-8.309,48.948-12.187c7.846-1.857,15.644-3.815,23.597-5.181
	c8.621-1.481,17.432-1.633,26.011-3.244c0.791-0.149,0.806-1.475,0-1.612c-15.662-2.65-33.269,2.725-48.355,6.482
	c-17.047,4.246-34.052,8.169-50.867,13.323C317.412,360.48,318.059,362.877,319.616,362.427z"/>
<path d="M441.232,365.13c-3.475,1.961-9.535,1.768-13.495,2.602c-5.202,1.096-10.369,2.408-15.562,3.556
	c-10.253,2.265-20.608,4.869-31.077,5.973c-2.261,0.239-2.297,3.804,0,3.576c11.237-1.116,22.18-3.867,33.21-6.136
	c5.877-1.209,11.671-2.696,17.497-4.124c3.424-0.839,8.169-1.133,10.61-3.915C443.126,365.849,442.231,364.565,441.232,365.13z"/>
<path d="M210.634,386.216c12.332-5.799,26.831-7.412,39.798-11.619c5.85-1.898,11.734-3.481,17.792-4.56
	c6.045-1.078,11.603-3.9,17.775-4.347c0.944-0.068,1.315-1.61,0.241-1.778c-5.378-0.843-10.191,1.255-15.369,2.418
	c-6.854,1.537-13.616,2.7-20.348,4.817c-13.516,4.249-28.573,6.419-41.318,12.626C207.559,384.571,208.998,386.985,210.634,386.216z
	"/>
<path d="M190.907,411.895c2.852-0.477,5.617-1.934,8.417-2.681c2.729-0.728,5.528-1.262,8.196-2.211
	c2.798-0.995,5.342-2.712,8.343-3.088c1.1-0.138,1.619-1.892,0.29-2.143c-4.434-0.836-8.728,2.027-12.829,3.348
	c-6.493,2.091-12.706,5.266-19.557,5.585c-0.574,0.027-0.56,0.831,0,0.882C186.167,411.808,188.508,412.297,190.907,411.895z"/>
<path d="M228.939,420.66c-6.983,0.073-13.793,2.222-20.489,4.007c-7.508,2.002-15.205,3.198-22.652,5.434
	c-1.598,0.48-0.927,2.959,0.692,2.507c13.994-3.903,28.576-6.443,42.764-9.622C230.565,422.691,230.264,420.646,228.939,420.66z"/>
<path d="M211.589,442.61c5.345-1.643,10.969-3.13,16.501-3.953c3.135-0.466,6.487-0.439,8.719-2.999
	c0.735-0.842-0.222-2.342-1.266-1.64c-2.765,1.856-6.757,0.976-9.908,1.522c-5.026,0.871-10.122,2.127-15.009,3.578
	C208.396,439.78,209.354,443.297,211.589,442.61z"/>
<path d="M39.551,136.399c-0.428-2.442-3.882-1.652-4.031,0.559c-0.018-0.002-0.034-0.005-0.051-0.007
	c-0.267,2.223-1.583,4.579-2.23,6.735c-0.824,2.747-1.513,5.528-2.41,8.253c-1.321,4.02-3.257,8.287-0.339,11.873
	c0.536,0.659,1.682,0.559,2.232,0c3.263-3.311,4.206-10.079,5.132-14.536C38.702,145.204,40.277,140.543,39.551,136.399z"/>
<path d="M43.727,144.801c-2.222,4.358-4.423,8.672-6.579,13.058c-1.468,2.988-4.521,7.226-2.129,10.379
	c0.531,0.7,1.302,0.978,2.129,0.559c3.016-1.535,4.694-6.779,5.933-9.795c1.689-4.117,3.46-8.177,5.188-12.284
	C49.357,144.126,44.996,142.312,43.727,144.801z"/>
<path d="M46.887,157.768c-1.11,1.192-0.201,3.157,1.14,3.343c-0.121,0.384-0.259,0.764-0.399,1.14
	c-0.325,0.868-0.681,1.725-1.054,2.571c-0.902,2.048-2.616,5.317-0.546,7.23c0.669,0.618,1.832,0.562,2.298-0.296
	c1.613-2.973,3.136-5.972,4.05-9.251c0.384-1.375,0.793-3.062-0.025-4.36C51.005,156.009,48.467,156.071,46.887,157.768z"/>
<path d="M94.369,242.344c-0.069-2.821-3.949-2.663-4.272,0c-1.025,8.437-7.515,16.995-4.902,25.594c0.716,2.354,3.766,2.134,4.567,0
	c1.582-4.212,2.142-8.797,3.172-13.175C93.909,250.613,94.474,246.62,94.369,242.344z"/>
<path d="M100.947,266.185c0.748-2.13,0.901-4.419,1.645-6.548c0.688-1.969,1.543-3.469,1.904-5.54
	c0.152-0.867-0.084-1.954-0.968-2.38c-0.263-0.127-0.525-0.253-0.789-0.38c-1.781-0.858-3.812,1.157-2.692,2.751
	c-0.805,2.014-2.096,3.759-2.914,5.792c-1.067,2.651-1.98,5.137-3.352,7.652c-1.841,3.374-3.061,6.701-0.927,10.228
	c0.764,1.265,2.505,1.486,3.566,0.46c0.133-0.128,0.265-0.257,0.398-0.385c0.504-0.487,0.479-1.154,0.225-1.744
	C96.028,273.729,100.137,268.492,100.947,266.185z"/>
<path d="M101.334,273.251c-0.076,2.853-1.14,5.563-1.072,8.397c0.063,2.607,0.382,5.37,1.486,7.748
	c0.56,1.205,2.104,0.626,2.503-0.327c1.047-2.493,1.116-5.555,1.833-8.18c0.659-2.418,0.876-5.145,0.82-7.638
	C106.827,269.665,101.431,269.662,101.334,273.251z"/>
<path d="M142.113,360.988c-0.862,1.762-2.137,3.134-2.683,5.062c-0.632,2.236-0.676,4.503-1.507,6.707
	c-1.329,3.526-3.767,7.42-1.173,10.935c0.932,1.262,2.799,1.484,3.69,0c1.607-2.682,2.46-6.306,3.438-9.294
	c0.467-1.43,0.697-2.843,0.909-4.326c0.367-2.559,1.208-4.007,2.178-6.248C148.368,360.582,143.728,357.687,142.113,360.988z"/>
<path d="M147.719,381.427c-0.252,5.373-2.506,11.273,0.191,16.262c0.575,1.065,2.179,1.018,2.766,0
	c2.691-4.658,2.608-10.988,2.569-16.262C153.218,377.854,147.885,377.885,147.719,381.427z"/>
<path d="M292.717,326.433c-5.991,2.443-12.306,2.244-18.629,3.05c-6.893,0.879-13.982,2.225-20.725,3.896
	c-6.847,1.695-13.692,3.397-20.547,5.058c-3.762,0.912-7.975,1.048-10.856,3.916c-1.346,1.34,0.669,3.309,2.068,2.068
	c3.408-3.019,12.355-2.896,16.728-3.571c6.861-1.059,13.574-2.747,20.42-3.887c6.69-1.115,13.338-2.398,20.064-3.273
	c4.769-0.619,9.163-1.658,12.991-4.657C295.429,328.095,294.127,325.859,292.717,326.433z"/>
<path d="M352.296,315.162c-6.457,1.122-12.802,3.777-19.088,5.595c-1.577,0.456-0.918,2.873,0.679,2.463
	c25.055-6.448,52.166-4.927,76.291-15.743c0.974-0.436,0.502-2.134-0.55-2.034c-12.74,1.215-24.891,4.64-37.406,7.123
	C365.626,313.876,358.865,314.02,352.296,315.162z"/>
<path d="M404.94,205.414c5.247,12.168,10.007,23.973,19.533,33.465c2.912,2.902,10.802,9.359,13.623,3.04
	c2.304-5.162-1.907-11.744-3.665-16.396c-1.931-5.106-3.893-11.708-7.751-15.685c-0.447-0.46-1.308,0.158-0.912,0.704
	c3.93,5.412,4.616,13.375,7.03,19.547c1.087,2.778,3.923,7.588,1.996,10.303c-1.241,1.749-1.864,1.113-3.696,0.214
	c-1.003-0.492-1.917-1.189-2.808-1.852c-10.541-7.862-16.248-20.119-21.049-31.99c-2.238-5.535-5.177-10.869-7.112-16.495
	c-1.106-3.214-2.174-6.477-3.056-9.76c-0.321-1.198-2.742-7.656-2.256-8.423c1.22-1.926,3.925,2.236,4.627,2.929
	c2.519,2.492,5.091,4.245,7.157,7.222c3.437,4.953,5.467,10.856,8.996,15.618c1.015,1.371,3.343,0.062,2.325-1.36
	c-2.683-3.747-4.315-8.549-6.796-12.527c-2.249-3.607-4.274-6.551-7.453-9.41c-3.293-2.96-6.892-9.606-12.04-6.964
	c-0.483,0.247-0.875,0.895-0.827,1.443c0.542,6.275,3.501,13.136,5.826,18.982C399.025,194.032,402.383,199.486,404.94,205.414z"/>
<path d="M369.673,109.668c1.891,2.814,5.498,9.096,9.443,9.365c6.865,0.468,4.447-15.659,0.178-17.943
	c-0.777-0.416-2.081,0.302-1.671,1.285c1.322,3.163,1.808,5.963,1.761,9.401c-0.006,0.44,0.096,3.128-0.428,3.349
	c-0.575,0.243-3.513-3.601-3.834-3.999c-4.95-6.149-8.428-13.42-11.581-20.607c-0.877-1.999-3.777-0.269-2.927,1.711
	C363.199,98.248,366.01,104.218,369.673,109.668z"/>
<g>
</g>
<g>
</g>
<g>
</g>
<g>
</g>
<g>
</g>
<g>
</g>
<g>
</g>
<g>
</g>
<g>
</g>
<g>
</g>
<g>
</g>
<g>
</g>
<g>
</g>
<g>
</g>
<g>
</g>
</svg>
