<?xml version="1.0" encoding="iso-8859-1"?>
<!-- Generator: Adobe Illustrator 19.0.0, SVG Export Plug-In . SVG Version: 6.00 Build 0)  -->
<svg version="1.1" id="Layer_1" xmlns="http://www.w3.org/2000/svg" xmlns:xlink="http://www.w3.org/1999/xlink" x="0px" y="0px"
	 viewBox="0 0 512 512" style="enable-background:new 0 0 512 512;" xml:space="preserve">
<polygon style="fill:#EDEDED;" points="262.84,321 78.677,321 78.677,201.836 262.84,234.335 "/>
<polygon style="fill:#F8F8F9;" points="468.668,418.498 35.343,418.498 35.343,310.167 468.668,234.335 "/>
<polygon style="fill:#B4D8F1;" points="468.668,234.335 306.171,262.772 306.171,418.498 468.668,418.498 "/>
<rect x="154.513" y="342.663" style="fill:#F8F8F9;" width="314.16" height="75.832"/>
<rect x="306.165" y="342.663" style="fill:#EDEDED;" width="184.163" height="75.832"/>
<rect x="414.497" y="342.663" style="fill:#B4D8F1;" width="75.832" height="75.832"/>
<rect x="257.427" y="375.163" style="fill:#454449;" width="32.499" height="43.332"/>
<rect x="338.665" y="93.502" style="fill:#797781;" width="86.665" height="232.912"/>
<rect x="381.997" y="93.502" style="fill:#58575D;" width="43.332" height="232.912"/>
<rect x="35.343" y="299.331" style="fill:#D1E5F5;" width="108.331" height="119.164"/>
<polygon style="fill:#D8D8DA;" points="512,326.417 159.925,326.417 159.925,298.746 493.179,239.501 487.49,207.503 
	340.444,233.644 341.142,229.108 59.48,185.776 54.539,217.896 255.296,248.782 0,294.168 5.688,326.166 127.426,304.524 
	127.426,418.498 159.925,418.498 159.925,358.916 398.252,358.916 398.252,418.498 430.752,418.498 430.752,358.916 512,358.916 "/>
<g>
	<polygon style="fill:#C6C5CA;" points="493.179,239.501 487.49,207.503 340.444,233.644 341.142,229.108 306.171,223.729 
		306.171,272.746 	"/>
	<polygon style="fill:#C6C5CA;" points="306.171,326.417 306.171,358.916 398.252,358.916 398.252,418.498 430.752,418.498 
		430.752,358.916 512,358.916 512,326.417 	"/>
</g>
<g>
</g>
<g>
</g>
<g>
</g>
<g>
</g>
<g>
</g>
<g>
</g>
<g>
</g>
<g>
</g>
<g>
</g>
<g>
</g>
<g>
</g>
<g>
</g>
<g>
</g>
<g>
</g>
<g>
</g>
</svg>
