<?xml version="1.0" encoding="iso-8859-1"?>
<!-- Generator: Adobe Illustrator 19.0.0, SVG Export Plug-In . SVG Version: 6.00 Build 0)  -->
<svg version="1.1" id="Layer_1" xmlns="http://www.w3.org/2000/svg" xmlns:xlink="http://www.w3.org/1999/xlink" x="0px" y="0px"
	 viewBox="0 0 511.999 511.999" style="enable-background:new 0 0 511.999 511.999;" xml:space="preserve">
<path style="fill:#E5E0AC;" d="M468.614,417.688c-1.747-5.016-3.351-9.178-3.716-14.545c-0.338-4.966-2.527-9.388-2.817-14.323
	c-0.354-6.027-0.79-11.583-2.157-17.455c-2.33-10.007-2.04-20.017-2.342-30.228c-0.329-11.118-1.097-22.483-2.259-33.542
	c-1.228-11.677-3.511-23.079-6.913-34.305c-1.397-4.611-2.419-9.4-3.986-13.97c-1.042-15.718-1.177-31.444-1.772-47.176
	c-0.616-16.298-1.344-32.754-2.667-49.006c-1.185-14.549-3.261-28.793-8.077-42.567c0.152-4.45,0.795-8.895,0.498-13.359
	c-0.345-5.174-1.024-9.756-0.795-14.964c0.436-9.947-0.815-20.048-0.644-30.042c0.19-11.11,2.175-22.053,0.163-33.103
	c-0.09-0.498-0.236-0.976-0.404-1.442c1.799-6.929-0.886-15.343-9.102-17.144c-5.542-1.215-7.129-2.246-13.049-2.898
	c-2.61-0.288-4.961-0.248-7.567,0.076c-0.808,0.101-1.654,0.268-2.497,0.405c0.012-0.195-3.985-0.369-4.731-0.409
	c-10.502-0.56-21.282,2.185-31.63,3.576c-10.541,1.416-21.022,2.771-31.656,3.395c-9.759,0.573-19.753,3.11-31.04,3.342
	c-10.632,0.219-21.143,1.044-31.755,1.295c-11.067,0.261-22.096-0.128-33.157,0.454c-10.861,0.572-21.379,0.39-32.21,1.703
	c-5.091,0.617-10.233,0.917-15.352,1.073c-4.699,0.143-9.084,1.124-13.773,0.759c-5.429-0.422-11.849-0.676-15.76-0.169
	c-4.115,0.534-7.75,1.271-11.074,3.936c-1.435,1.15-2.672,2.391-3.653,3.98c-0.084,0.136-0.136,0.234-0.196,0.342
	c-0.089,0.057-0.157,0.097-0.258,0.163c-0.776,0.515-1.523,1.186-2.263,1.863c-6.776,0.627-13.545,1.324-20.331,1.994
	c-7.713,0.76-15.095,2.534-22.843,2.729c-6.925,0.174-13.437,2.509-18.714,6.842c-6.022,2.813-8.082,10.016-11.1,15.782
	c-0.259,0.207-0.512,0.429-0.758,0.675c-4.047,4.088-7.422,9.463-10.35,14.908c-2.804,1.21-4.948,3.802-4.776,7.323
	c0.077,1.605-1.177,4.234-1.327,6.075c-0.201,2.46-0.363,4.919-0.293,7.382c0.127,4.501,0.911,9.03,1.319,13.511
	c0.91,9.994,0.465,19.949,1.67,29.949c1.069,8.863,1.5,17.573,3.617,26.199c0.671,2.734,0.715,5.515,1.563,8.22
	c0.408,1.13,0.866,2.24,1.357,3.337c0,0.012,0,0.018,0,0.03c-0.661,4.088,1.692,9.969,3.564,13.474
	c3.549,6.644,3.546,15.032,5.302,22.31c1.869,7.754,2.724,15.77,3.993,23.672c1.554,9.671,3.586,19.275,4.945,28.973
	c0.594,4.238,0.538,8.396,1.891,12.47c0.154,0.463,0.315,0.882,0.476,1.304c0.026,1.105,0.068,2.216,0.15,3.35
	c0.767,10.673,1.268,21.44,2.121,32.024c0.374,4.635,1.111,9.431,1.898,14.172c0.82,4.945,0.638,9.669,1.139,14.601
	c0.997,9.809,1.63,19.711,2.814,29.514c0.634,5.247,0.893,10.496,1.406,15.759c0.551,5.663,0.027,11.327,0.966,16.945
	c1.585,9.48,2.791,19.44,3.204,29.118c0.266,6.218,1.016,12.505,1.784,18.661c0.707,5.672,0.644,11.354,1.597,17.01
	c0.443,2.627,0.887,5.42,1.667,7.97c0.41,2.316,0.533,2.484,0.365,0.503c0.159,1.708,0.374,3.408,0.648,5.103
	c1.264,6.052,4.706,10.703,10.3,13.044c0.376,0.665,0.82,1.279,1.385,1.765c3.9,3.352,7.033,3.099,11.757,2.142
	c5.149-1.044,10.27-0.42,15.481-0.835c2.238-0.178,4.35-1.084,6.527-1.323c2.116-0.232,4.447,0.08,6.607,0.115
	c4.701,0.074,9.693-1.23,14.338-0.572c5.393,0.764,9.448,1.442,14.974,0.769c5.058-0.614,10.093-1.153,15.181-1.086
	c11.17,0.147,22.452,0.083,33.578-0.991c11.635-1.123,23.073-2.074,34.715-2.75c11.423-0.662,22.918-0.7,34.327-2.014
	c11.471-1.322,23.206-2.768,34.718-1.93c10.654,0.775,21.436-0.368,32.047-1.198c7.493,2.68,15.489,3.731,23.357,2.628
	c7.104-0.997,14.409-0.867,21.541-1.394c5.415-0.4,12.487-0.346,20.007,0.667c3.117,1.705,6.4,2.423,10.389,1.136
	c5.22-1.685,8.41-6.097,9.953-11.214c0.986-3.272,0.696-6.388,0.754-9.135c0.014-0.702,0.056-1.399,0.088-2.098
	c1.927-2.511,3.781-5.082,5.536-7.663c2.836-4.171,4.854-8.646,7.412-12.954c3.461-5.827,6.432-10.333,6.307-17.516
	C470.154,427.979,470.232,422.337,468.614,417.688z M71.755,91.396c-0.046,0.216-0.089,0.432-0.136,0.649
	c-0.252-1.173-0.525-2.342-0.846-3.484c0.225-0.297,0.443-0.599,0.666-0.896c0.035,0.988-0.099,2.26,0.148,3.166
	c0.063,0.23,0.119,0.401,0.172,0.545C71.757,91.383,71.756,91.386,71.755,91.396z M117.628,64.574
	c-0.676-1.425-1.394-2.824-2.188-4.179c0.191-0.025,0.382-0.052,0.573-0.077c0.248,1.515,0.911,2.923,1.85,4.136
	C117.786,64.495,117.706,64.533,117.628,64.574z M123.787,444.196c-0.056,0.389-0.125,0.931-0.212,1.688
	c-0.057,0.498-0.099,0.984-0.139,1.468c-0.976-8.471-1.907-16.922-3.009-25.409c-0.04-0.303-0.086-0.614-0.127-0.918
	c0.077,0.275,0.148,0.545,0.227,0.821c1.084,3.756,2.484,7.499,3.094,11.374c0.491,3.115,0.048,5.991,0.099,9.166
	C123.735,443.295,123.76,443.859,123.787,444.196z M130.159,481.936c-0.092,0.005-0.187,0.016-0.279,0.021
	c-0.046-0.407-0.121-0.808-0.199-1.208c0.886,0.452,1.759,0.808,2.629,1.101C131.613,481.869,130.901,481.892,130.159,481.936z"/>
<path style="fill:#BFB975;" d="M443.672,454.156c-1.483,0.715-2.975,1.358-4.407,2.061c-2.784-1.078-5.673-1.415-9.226-1.492
	c-3.022-0.066-6.15,0.201-9.146,0.074c-2.677-0.114-5.281-1.061-8.015-1.284c-5.512-0.449-11.127,0.685-16.588,1.327
	c-6.126,0.719-11.973,0.962-18.089,1.345c-10.826,0.682-21.417,4.696-32.186,5.154c-11.809,0.502-23.433,0.577-35.185,2.144
	c-11.848,1.581-23.753,1.317-35.656,1.657c-11.313,0.323-22.477,2.821-33.795,3.183c-5.46,0.176-10.743-0.154-16.173-0.465
	c-5.38-0.309-11.1,0.803-16.479,1.251c-11.982,0.995-23.655,0.01-35.628-0.017c-6.32-0.014-12.543,0.716-18.865,0.751
	c-6.698,0.037-12.836-0.809-19.515,0.664c-3.044,0.671-5.996,1.761-9.048,2.41c-0.013-0.803-0.028-1.605-0.049-2.402
	c0.074-3.608-0.111-7.191-0.214-10.407c-0.219-6.816-1.164-13.58-2.258-20.314c-0.001-0.01-0.003-0.022-0.004-0.032
	c-0.88-9.212-1.02-18.733-1.554-28.183c1.106,0.037,2.313-0.046,3.791-0.297c3.609-0.608,7.118-2.108,10.817-2.061
	c3.906,0.049,6.175,1.903,9.45,3.567c5.138,2.611,9.52,3.183,15.191,2.347c7.922-1.167,7.938-10.975,4.179-15.829
	c-6.332-8.175-18.2-13.215-28.502-12.337c-4.758,0.405-9.299,2.365-13.225,4.996c-0.605,0.405-1.207,0.821-1.805,1.244
	c0.155-0.621,0.244-1.261,0.187-1.926c-0.012-0.13-0.022-0.259-0.034-0.39c-0.049-0.58-0.154-1.123-0.299-1.633
	c0.021-0.003,0.04-0.005,0.061-0.008c-2.682-17.107-3.763-35.028-5.69-52.374c-0.658-5.921-1.278-11.849-1.878-17.778
	c2.725-0.367,5.517-0.493,8.526-0.301c9.156,0.585,18.799,5.556,26.476-1.765c2.278-2.173,3.496-6.102,2.417-9.144
	c-4.523-12.763-22.431-12.989-33.711-10.668c-1.861,0.383-3.817,0.946-5.777,1.664c-0.7-6.219-1.389-12.487-1.54-18.61
	c-0.075-3-1.239-5.28-2.959-6.852c1.523-8.352-1.371-18.359-2.577-26.136c-0.115-0.738-0.225-1.479-0.339-2.218
	c-0.305-5.744-0.669-11.491-1.291-17.202c1.057,0.177,2.166,0.074,3.176-0.412c2.373-1.142,5.243-1.13,7.799-1.224
	c3.319-0.123,6.19,1.619,9.6,1.459c7.411-0.347,10.926-8.881,5.948-14.36c-4.732-5.209-12.973-5.882-19.118-2.959
	c-3.285,1.563-6.086,3.922-8.467,6.66c-0.386-6.58-0.627-13.43-3.59-19.074c-0.981-1.868-2.528-3.186-4.323-3.981
	c-0.416-1.907-1.009-3.713-1.811-5.352c-0.497-3.568-0.972-7.128-1.651-10.675c-1.597-8.347-2.236-16.763-3.244-25.196
	c-1.965-16.437-4.841-32.785-7.793-49.075c0.247-4.541-0.874-9.534-1.278-13.408c-0.443-4.235-1.105-8.436-1.222-12.696
	c-0.139-5.081,0.848-9.434,1.194-14.378c0.35-5.005-4.469-7.399-8.602-6.516c-0.349-0.026-0.707-0.025-1.078,0.01
	c-4.146,0.389-6.423,2.589-8.069,5.49c-5.349,6.648-9.932,14.831-10.923,23.179c-0.556,4.687,1.078,9.203,3.461,13.235
	c1.118,1.891,2.817,4.122,4.537,5.508c0.063,0.052,0.174,0.12,0.303,0.195c0.015,2.56,0.076,5.117,0.174,7.675
	c-0.148,0.234-0.311,0.452-0.438,0.707c-2.649,5.329-1.979,11.021-1.372,16.776c0.815,7.71,1.772,15.417,2.795,23.101
	c0.815,6.128,1.544,12.365,2.605,18.452c0.679,3.896,1.022,7.887,1.728,11.779c0.34,6.871,0.764,14.03,3.431,20.094
	c0.918,2.085,2.951,3.607,5.286,4.403c0.325,2.222,0.673,4.362,0.876,6.281c0.909,8.538,2.01,17.047,2.938,25.586
	c0.937,8.617,2.22,17.198,2.975,25.834c0.558,6.381-0.298,15.841,3.649,21.231c0.84,1.148,1.961,2.178,3.227,3.021
	c-0.886,1.385-1.456,3.103-1.546,5.17c-0.604,13.821,1.611,27.324,3.194,41.043c1.505,13.038,2.223,27.312,6.286,39.839
	c0.747,2.306,1.972,4.022,3.453,5.233c-2.355,13.357-1.225,27.148,0.006,40.733c0.048,0.804,0.097,1.608,0.128,2.409
	c0.377,9.496,1.35,18.942,2.153,28.408c0.595,7.007,1.523,13.986,1.934,21.004c0.369,6.314,0.852,13.323,6.891,16.914
	c1.881,1.118,3.981,1.492,6.009,1.262c-1.064,4.361,3.361,8.778,8.3,7.949c3.46-0.581,7.22-1.624,10.768-1.388
	c6.413,0.429,12.387,1.929,18.906,1.554c10.772-0.617,21.565-2.022,32.386-2.182c4.972-0.074,9.827-0.572,14.81-0.758
	c5.889-0.219,11.761,0.51,17.653,1.08c11.394,1.104,22.902,0.571,34.325,0.168c22.541-0.795,45.445-4.466,68.018-2.455
	c11.383,1.013,23.303-2.192,34.733-2.921c8.462-0.54,16.788-2.091,25.196-3.008c0.56,0.824,1.398,1.441,2.516,1.643
	c5.873,1.069,11.269,3.037,17.025,4.318c5.059,1.124,9.987,0.497,15.044-0.157c4.474-0.58,6.616-3.857,6.465-7.047
	c2.864-0.309,4.737-0.028,7.749,0.037c1.541,0.034,2.96-0.154,4.302-0.485c2.895,2.406,7.238,1.778,9.891-0.839l0.271,0.271
	c2.864-2.859,5.135-5.788,6.975-9.423c1.934-3.822,4.687-7.138,6.558-10.947C460.315,458.265,452.038,450.125,443.672,454.156z"/>
<g>
	<path style="fill:#C18140;" d="M151.499,268.22c-7.128-6.478-16.216-8.313-25.045-10.829c-8.981-2.558-19.355-0.399-28.098,2.165
		c-4.115,1.207-9.586,4.69-12.67,7.67c-3.001,2.901-6.79,6.13-8.548,10.008c-2.507,5.527-4.686,11.711-5.97,17.935
		c-2.191,5.595-3.11,12.569-2.658,16.957c-0.749,2.224-1.026,4.545-0.556,7.003c0.101,0.527,0.205,1.078,0.37,1.589
		c0.844,1.919,0.891,2.086,0.138,0.497c0.222,0.933,0.651,1.747,1.284,2.44c2.599,3.367,7.677,3.755,10.706,0.725
		c1.447-1.447,2.107-3.364,2.05-5.254c1.097-0.746,2.074-1.767,2.827-3.099c0.7-1.239,1.222-2.645,1.643-4.097
		c2.983-1.313,4.861-3.927,7.588-6.572c1.388-1.346,7.204-3.966,10.302-5.326c10.239-4.493,17.628-2.6,27.739,0.689
		c8.734,2.841,20.156,6.669,26.053-3.864C163.522,288.167,158.263,274.366,151.499,268.22z"/>
	<path style="fill:#C18140;" d="M160.119,362.69c-1.246-1.416-2.454-3.01-3.829-4.3c-1.029-0.941-2.16-1.73-3.392-2.366
		c-2.361-1.598-3.018-1.648-1.97-0.15c-2.595-1.288-4.497-2.737-7.335-3.74c-1.799-0.635-3.312-1.318-5.038-2.169
		c-9.079-4.479-20.574-5.571-29.639-0.474c-9.401,5.286-17.476,9.893-22.391,20.052c-2.296,4.745-5.285,9.835-6.731,14.906
		c-1.663,5.831-0.725,12.182-1.958,18.15c-2.386,11.539,13.99,14.21,16.651,5.276c0.645-1.193,1.153-2.468,1.603-3.769
		c3.332,0.163,6.718-1.135,8.494-3.96c1.228-1.952,1.346-3.842,1.685-6.001c1.903-1.736,3.684-3.688,6.023-4.868
		c9.095-4.592,18.853,0.427,27.706,2.997c1.539,0.447,6.277,1.215,6.123,1.159c2.289,0.818,4.45,2.166,6.768,2.889
		c5.132,1.602,10.967-0.083,13.887-4.716C172.745,382.127,166.575,370.031,160.119,362.69z"/>
	<path style="fill:#C18140;" d="M135.698,179.143c-4.299-3.257-8.884-5.353-14.015-6.915c-0.387-0.383-0.805-0.755-1.295-1.099
		c-3.807-2.675-9.133-2.637-13.598-3.077c-5.273-0.522-10.098-1.898-15.43-0.857c-8.688,1.695-17.131,7.512-23.345,13.672
		c-6.874,6.812-13.089,15.425-13.75,25.373c-0.298,4.481-1.194,9.072-0.638,13.526c0.127,1.013,0.275,2.02,0.431,3.023
		c0.086,1.105,0.265,2.2,0.545,3.28c0.192,1.101,0.389,2.202,0.581,3.307c0.075,1.091,0.228,2.182,0.55,3.272
		c2.582,8.782,13.863,6.063,14.903-2.018c0.241-1.87,0.196-3.688,0.088-5.498c4.3-3.219,7.94-7.126,12.223-10.399
		c7.349-5.618,16.23-7.728,25.411-7.301c2.309,0.107,5.886-0.097,8.211,0.461c-0.981-0.129,2.534,1.861,2.588,1.894
		c3.024,1.732,6.505,2.773,9.84,3.665c8.287,2.219,14.122-3.027,15.459-11.13C145.796,194.226,142.264,184.119,135.698,179.143z"/>
	<path style="fill:#C18140;" d="M118.261,87.846c-2.467-1.727-5.419-2.055-8.18-3.05c-3.904-1.407-7.226-2.258-11.326-2.946
		c-7.952-1.335-13.36-1.966-21.12,1.03c-6.875,2.655-13.442,5.677-19.311,10.231c-6.064,4.705-12.466,7.234-16.91,13.762
		c-7.208,10.588-7.575,28.666,0.678,38.838c2.781,3.427,7.391,1.523,9.305-1.574c1.584,0.108,3.19-0.16,4.575-0.887
		c4.821-2.528,8.112-8.948,12.286-12.518c4.996-4.27,11.84-8.339,18.33-9.235c3.285-0.453,6.47-0.247,9.68,0.52
		c3.387,0.809,6.093,2.471,9.381,3.342c2.571,0.682,6.223,0.476,8.778,0.025c1.195-0.21,2.271-0.47,3.257-0.997
		c0.796,0.028,1.628-0.062,2.482-0.293c7.163-1.936,8.684-9.78,8.742-16.314C128.963,101.178,123.685,91.643,118.261,87.846z"/>
</g>
<g>
	<path style="fill:#9E6226;" d="M128.151,120.592c-2.511-3.337-4.879-7.111-8.538-9.316c-2.885-1.739-7.563-3.254-10.792-4.297
		c-3.684-1.19-7.91-1.302-11.712-0.955c-3.956,0.363-7.821-0.12-11.77,0.072c-3.564,0.173-6.932,1.25-10.465,1.641
		c-5.158,0.571-9.423,3.024-13.606,5.886c-2.407,1.648-4.563,3.221-6.587,5c1.461-3.582,2.786-7.382,4.819-10.644
		c0.747-1.199,0.576-3.168-0.532-4.124c-9.403-8.123-17.406,11.433-19.702,17.909c-1.984,5.598-3.639,13.55-0.531,19.063
		c3.426,6.075,10.493,5.503,15.492,1.917c5.13-3.682,8.769-9.116,13.962-12.823c5.432-3.878,11.339-6.663,17.62-8.867
		c1.521-0.533,5.121-0.114,7.865-0.232c2.813-0.121,5.627-1.131,8.423-0.6c2.522,0.479,4.82,2.094,7.208,3.098
		c3.312,1.393,4.592,3.842,7.202,6.256C122.355,134.982,133.445,127.627,128.151,120.592z"/>
	<path style="fill:#9E6226;" d="M148.183,210.097c-0.013-0.188-0.026-0.377-0.039-0.567c-0.332-4.777-3.7-7.576-7.355-8.023
		c-3.074-1.333-5.614-3.822-8.895-4.699c-4.488-1.199-9.094-2.95-13.675-3.784c-5.91-1.074-12.181-0.531-18.162-0.7
		c-5.285-0.15-10.963-0.216-16.011,1.549c-5.237,1.832-9.141,5.499-13.563,8.593c-4.082,2.857-7.168,5.354-9.867,9.685
		c-2.312,3.71-9.849,18.153-0.105,18.497c6.857,0.241,10.808-6.537,15.108-10.581c2.556-2.405,6.297-4.354,9.302-6.288
		c4.052-2.609,6.581-3.462,11.366-3.702c4.73-0.238,9.497-0.392,14.23-0.543c4.894-0.157,7.922,1.66,12.465,3.054
		c0.67,0.207,4.069,1.296,4.792,1.255c0.795,0.586,1.761,1.266,1.962,1.388c3.013,1.809,6.394,3.705,10.013,3.302
		C144.029,218.056,148.526,215.047,148.183,210.097z"/>
	<path style="fill:#9E6226;" d="M148.045,291.619c-6.053-2.588-9.676-8.198-16.298-9.56c-7.706-1.585-15.625-1.16-23.316,0.378
		c-7.012,1.403-12.413,3.984-17.89,7.869c-0.68-7.98-12.561-10.1-16.611-3.161c-2.129,3.648-4.185,7.593-6.08,11.822
		c-2.269,5.067-2.271,8.547-0.855,13.062c-0.234,1.768-0.296,3.542-0.07,5.285c0.673,5.183,4.86,9.878,10.657,8.118
		c7.074-2.148,9.9-8.85,14.478-13.979c5.191-5.811,10.265-10.091,17.949-11.875c5.517-1.281,13.255-3.722,18.91-1.709
		c2.764,0.984,5.262,4.348,7.845,5.938c2.981,1.836,6.196,2.54,9.527,1.221C151.331,303.034,154.525,294.39,148.045,291.619z"/>
	<path style="fill:#9E6226;" d="M163.512,384.386c-4.133-6.196-9.09-12.669-16.935-13.344c-3.857-0.332-8.127-1.193-11.869-0.177
		c-3.879,1.052-7.994,1.614-11.829,2.921c-8.971,3.059-18.246,7.78-26.239,12.862c-0.747,0.475-1.503,1.013-2.255,1.581
		c0.337-2.624,0.666-5.247,0.671-7.894c0.012-6.75-9.528-9.543-12.878-3.488c-2.689,4.861-3.985,11.001-4.771,16.466
		c-0.807,5.606-1.988,12.082-0.343,17.618c1.73,5.822,7.981,9.747,13.854,7.211c5.156-2.227,7.528-8.214,11.748-11.769
		c8.924-7.519,19.93-16.147,31.448-18.889c3.554-0.847,4.506-1.514,7.095-1.102c1.038,0.165,2.631,0.241,3.651-0.031
		c0.074,0.012,0.146,0.023,0.219,0.036c2.518,4.382,7.839,8.212,12.818,7.788C162.447,393.785,166.473,388.826,163.512,384.386z"/>
</g>
<g>
	<path style="fill:#D4A375;" d="M111.113,174.341c-2.271-0.458-4.606-0.297-6.892-0.057c-3.507,0.368-6.898,0.187-10.397,0.443
		c-5.401,0.395-9.511,3.329-13.975,6.066c-4.851,2.974-8.871,5.516-10.496,11.212c-0.589,2.062,1.401,4,3.443,3.443
		c8.24-2.249,14.376-10.097,23.272-10.344c6.756-0.187,13.095-0.173,19.235-3.044c0.829-0.387,1.23-1.37,1.274-2.22
		C116.743,176.621,113.958,174.916,111.113,174.341z"/>
	<path style="fill:#D4A375;" d="M106.005,96.066c-4.886-6.565-11.675-6.738-19.345-6.804c-4.264-0.036-7.824-0.391-11.889,1.286
		c-4.499,1.856-7.798,6.267-12.397,7.571c-2.521,0.714-2.153,5.082,0.643,4.754c4.137-0.485,8.167-1.641,12.274-2.348
		c4.714-0.812,10.092,0.088,14.832,0.609c3.936,0.434,13.256,3.82,15.881-0.768C106.698,99.152,106.892,97.259,106.005,96.066z"/>
	<path style="fill:#D4A375;" d="M134.922,267.62c-2.187-10.701-14.424-7.786-22.128-6.611c-4.854,0.741-9.567,0.174-14.179,2.12
		c-4.388,1.851-8.592,4.771-12.021,8.059c-3.98,3.817,1.424,11.303,6.049,7.841c4.765-3.567,9.638-4.111,15.381-3.875
		c5.089,0.209,10.149-0.873,15.228-1.111C128.293,273.805,136.777,276.699,134.922,267.62z"/>
	<path style="fill:#D4A375;" d="M147.792,355.174c-2.256-8.946-14.469-5.517-20.384-3.938c-9.262,2.472-16.07,5.303-23.66,11.108
		c-1.948,1.49-0.949,5.516,1.865,4.424c4.776-1.854,9.151-0.933,14.09-1.21c4.169-0.234,8.228-0.565,12.345-1.295
		C137.107,363.367,149.904,363.548,147.792,355.174z"/>
</g>
<g>
	<path style="fill:#E5E4D3;" d="M427.216,214.455c-1.145-7.524-1.805-15.066-2.614-22.628c-1.685-15.743-3.394-31.473-4.652-47.257
		c-1.204-15.098-1.616-30.192-2.407-45.309c-0.734-14.028-0.441-29.476-4.208-43.077c-0.805-2.907-3.762-3.302-5.729-2.096
		c-0.816-4.752-1.682-9.595-4.781-13.324c-2.321-2.793-6.856,0.816-4.989,3.849c1.85,3.009,1.321,6.734,1.557,10.137
		c0.25,3.614,0.454,7.169,0.413,10.795c-0.09,8.095,0.568,16.137,0.385,24.226c-0.37,16.439,0.399,33.233,1.833,49.616
		c1.372,15.681,2.325,31.085,4.917,46.647c2.44,14.638,4.434,29.745,12.96,42.161c0.687,2.251,1.408,4.487,2.213,6.688
		c0.959,2.626,5.317,3.254,5.981,0C429.455,228.213,428.229,221.121,427.216,214.455z"/>
	<path style="fill:#E5E4D3;" d="M365.782,87.572c-2.378-0.576-4.868-0.886-7.422-1.007c-0.274-3.982-0.567-7.962-0.891-11.931
		c-0.416-5.081-8.296-5.198-8.018,0c0.217,4.039,0.391,8.085,0.546,12.133c-7.961,0.669-16.097,2.475-23.217,3.698
		c-13.901,2.391-27.832,5.482-41.648,8.349c-13.806,2.864-27.513,5.716-41.457,7.861c-7.763,1.194-15.564,2.396-23.393,3.071
		c-3.59,0.309-7.191,0.376-10.793,0.439c-2.414,0.043-7.555,1.173-9.743,0.04c-4.132-2.142-7.761,3.966-3.665,6.27
		c4.18,2.352,9.991,1.306,14.607,1.375c7.732,0.116,15.461-0.19,23.18-0.622c15.12-0.847,30.36-2.358,45.24-5.24
		c14.201-2.75,28.418-5.343,42.584-8.273c9.462-1.957,19.204-3.564,28.66-6.003c0.343,13.688,0.367,27.397,0.128,41.052
		c-0.035,1.98-0.08,3.962-0.126,5.942c-0.026,0.004-0.05,0.003-0.076,0.006c-22.883,4.151-45.569,8.099-68.194,13.677
		c-10.937,2.695-21.978,4.728-32.961,7.199c-11.712,2.635-23.454,2.959-35.293,4.639c-3.59,0.51-2.783,6.793,0.865,6.388
		c11.469-1.268,22.908-1.03,34.272-3.265c11.393-2.241,22.841-4.022,34.192-6.498c22.683-4.945,45.225-9.339,67.08-17.316
		c-0.173,6.854-0.365,13.71-0.454,20.563c-0.139,10.655-0.778,21.701,0.234,32.308c0.275,2.885,4.886,4.095,5.498,0.744
		c3.812-20.885,4.229-42.029,4.515-63.184c0.201-14.885-0.252-29.85-1.119-44.763c2.322-0.771,4.617-1.608,6.873-2.551
		C367.982,91.76,368.591,88.252,365.782,87.572z"/>
	<path style="fill:#E5E4D3;" d="M350.879,55.393c-6.831-0.496-13.567,0.763-20.356,1.333c-6.702,0.564-13.404,0.92-20.114,1.362
		c-15.187,0.999-30.326,2.974-45.508,4.146c-13.794,1.065-27.546,2.53-41.348,3.532c-6.817,0.494-13.601,1.359-20.43,1.677
		c-7.194,0.334-14.183-0.421-21.347-0.811c-2.87-0.156-2.738,4.071,0,4.386c27.956,3.222,56.213,1.903,84.313,0.405
		c28.738-1.531,57.971-2.764,85.273-12.466C353.307,58.267,352.955,55.543,350.879,55.393z"/>
	<path style="fill:#E5E4D3;" d="M364.632,308.445c-4.158-0.866-7.883,0.235-11.973,1.034c-5.282,1.031-10.42,2.04-15.636,3.405
		c-9.764,2.558-19.498,4.524-29.377,6.527c-21.373,4.331-42.774,4.85-64.553,4.532c-6.461-0.094-6.381,9.639,0,9.984
		c21.973,1.19,43.906,1.765,65.625-2.17c10.691-1.938,21.121-4.009,31.644-6.765c8.245-2.16,19.664-4.75,25.673-11.237
		C367.56,312.107,367.081,308.955,364.632,308.445z"/>
	<path style="fill:#E5E4D3;" d="M347.007,357.273c-16.022-1.283-32.868,2.277-48.921,3.006c-17.079,0.777-34.016,1.428-51.121,1.406
		c-7.69-0.01-7.701,11.94,0,11.951c17.864,0.023,35.669-0.263,53.526-0.648c8.618-0.186,17.167-0.673,25.71-1.861
		c7.213-1.004,16.799-2.111,22.792-6.524C352.155,362.273,351.056,357.597,347.007,357.273z"/>
</g>
<path d="M473.457,397.513c-1.148-6.274-1.096-12.582-2.031-18.878c-1.022-6.889-2.047-13.264-2.435-20.214
	c-0.756-13.554-2.848-27.122-4.077-40.654c-1.339-14.748-5.686-29.186-6.563-43.925c-0.84-14.127-3.55-27.95-4.084-42.095
	c-0.571-15.098-4.354-29.775-6.005-44.743c-0.709-6.425-0.043-12.843-0.787-19.274c-0.86-7.433-1.629-14.873-2.524-22.304
	c-1.614-13.408-1.518-27.058-3.833-40.338c-2.507-14.394-2.089-29.754-3.192-44.363c-1.066-14.116-2.078-28.58-4.963-42.466
	c-0.929-4.47-1.683-11.2-4.661-14.827c-3.373-4.108-8.831-3.758-13.535-2.858c-11.726,2.241-23.618,3.381-35.457,4.83
	c-14.402,1.762-29.047,0.918-43.512,2.123c-14.157,1.179-28.329,0.267-42.506,0.796c-6.904,0.258-13.709,1.272-20.631,1.293
	c-7.727,0.025-15.453,0.039-23.179,0.061c-14.249,0.043-28.546,1.092-42.743,2.268c-15.885,1.315-31.297,4.504-46.977,7.062
	c-8.001,1.305-16.061,2.224-24.041,3.657c-8.354,1.501-16.466,3.576-24.928,4.504c-7.442,0.816-15.09,1.281-22.367,3.137
	c-4.898,1.25-12.09,2.271-16.088,5.54c-0.572,0.467-1.047,0.963-1.452,1.478c-0.818-0.068-1.642,0.244-2,1.08
	c-0.075,0.174-0.148,0.349-0.222,0.523c1-2.833-2.64,1.799-3.061,2.609c-1.615,3.114-2.055,6.625-3.552,9.758
	c-2.932,6.128-7.897,11.493-10.35,17.827c-1.963,5.071-4.595,9.936-6.782,15.01c-1.633,3.789-1.716,7.154-0.941,10.746
	c-0.484,0.751-0.942,1.519-1.336,2.327c-1.037,2.125-1.126,4.754-2.236,6.769c-0.904,1.642-2.302,2.657-3,4.509
	c-1.088,2.889-1.643,6.115-2.564,9.08c-2.908,9.373-4.345,19.182,0.034,27.999c0.155,6.838,5.66,13.225,13.138,13.184
	c0.999-0.005,2.123-0.174,3.287-0.479c0.235,0.209,0.491,0.413,0.771,0.607c0.906,0.63,1.774,0.507,2.422,0.015
	c-0.511,8.211-1.417,16.575,4.515,22.732c-0.154,0.279-0.314,0.554-0.454,0.84c-1.037,2.125-1.126,4.754-2.234,6.769
	c-0.904,1.643-2.302,2.657-3,4.509c-1.089,2.889-1.645,6.115-2.564,9.08c-2.908,9.373-4.345,19.182,0.034,27.999
	c0.155,6.838,5.659,13.225,13.138,13.184c0.999-0.005,2.123-0.174,3.287-0.479c0.235,0.209,0.491,0.412,0.771,0.607
	c0.31,0.216,0.611,0.316,0.905,0.372c-0.24,2.118-0.398,4.216-0.223,6.418c0.545,6.897-0.385,14.677,3.862,20.183
	c-0.339,0.559-0.662,1.128-0.95,1.718c-1.037,2.125-1.126,4.754-2.236,6.769c-0.904,1.643-2.302,2.657-3,4.509
	c-1.089,2.889-1.643,6.115-2.564,9.08c-2.908,9.373-4.345,19.182,0.034,27.999c0.155,6.838,5.66,13.225,13.138,13.184
	c0.999-0.005,2.123-0.174,3.287-0.479c0.235,0.209,0.491,0.412,0.771,0.607c0.027,0.018,0.052,0.022,0.077,0.039
	c-1.097,9.27-1.238,19.003,2.734,26.579c-0.753,1.074-1.454,2.182-2.031,3.365c-1.037,2.125-1.126,4.754-2.234,6.769
	c-0.904,1.642-2.302,2.657-3,4.509c-1.089,2.889-1.645,6.115-2.564,9.08c-2.908,9.373-4.345,19.182,0.034,27.999
	c0.155,6.838,5.659,13.225,13.138,13.184c0.999-0.005,2.123-0.174,3.287-0.479c0.235,0.209,0.491,0.412,0.771,0.607
	c0.092,0.063,0.179,0.086,0.27,0.136c-0.013,0.427-0.013,0.811,0.017,1.1c0.826,8.095,1.923,16.635,1.694,24.79
	c-0.205,7.28,0.68,15.299,1.728,22.51c1.215,8.347,3.485,17.25,6.438,25.154c1.643,4.398,4.189,10.808,9.285,11.975
	c2.826,0.647,4.708-0.476,7.233-1.295c3.28-1.065,7.268-1.539,10.709-1.818c3.479-0.281,7.231-0.484,10.668,0.257
	c2.751,0.593,5.018,1.608,7.89,1.47c4.198-0.204,8.165-1.474,12.435-1.504c4.761-0.032,9.533,0.101,14.295,0.133
	c18.847,0.13,37.52,0.177,56.279-1.872c17.205-1.879,34.381-2.099,51.576-3.893c18.777-1.96,37.959-0.626,56.838-1.694
	c8.605-0.487,17.17-1.352,25.751-1.851c8.786-0.511,17.872,0.248,26.691,0.247c10.19-0.001,20.254-1.06,30.424-1.293
	c4.674-0.107,9.644-0.633,14.292,0.108c3.724,0.594,6.845,1.765,10.264-0.673c2.268-1.617,3.249-4.122,4.63-6.431
	c2.294-3.833,4.585-7.177,6.115-11.427c2.888-8.023,8.504-15.116,10.211-23.52c3.697-0.846,6.918-2.564,9.258-6.569
	c2.033-3.483,2.669-7.26,2.636-11.094c0.54-0.954,0.91-2.095,0.982-3.478C480.502,422.707,475.742,410.01,473.457,397.513z
	 M458.495,396.131c0.016,0.101,0.036,0.199,0.052,0.299c-11.144,6.866-20.835,16.984-29.685,26.286
	c-5.293,5.562-10.999,11.713-17.659,15.639c-1.092,0.644-2.241,1.219-3.407,1.772c0.585-0.941,1.146-1.881,1.663-2.809
	c4.051-7.286,6.13-14.889,6.4-23.203c0.145-4.45,0.59-8.885,0.132-13.177c1.743,0.6,3.546,1.035,5.489,1.17
	c4.85,0.334,9.795,0.061,14.654,0.083C444.3,402.225,452.058,401.556,458.495,396.131z M81.742,42.09
	c11.486-5.072,25.303-4.564,37.524-6.314c13.598-1.945,27.098-4.86,40.71-6.911c6.902-1.04,13.67-2.91,20.556-3.911
	c6.36-0.926,12.787-1.269,19.16-2.209c27.331-4.029,54.931-0.957,82.294-3.098c26.667-2.087,53.572-0.484,80.271-2.182
	c12.776-0.812,25.615-1.701,38.348-3.177c4.909-0.569,9.8-1.477,14.677-2.263c2.445-0.394,3.621-1.264,4.972,0.297
	c1.354,1.565,1.815,6.823,2.196,8.839c2.615,13.799,3.275,28.084,4.176,42.07c0.865,13.422,0.253,27.441,2.262,40.716
	c1.96,12.95,2.24,25.97,3.759,38.994c1.54,13.195,2.672,26.103,3.128,39.339c0.474,13.763,4.297,27.316,5.694,40.994
	c0.682,6.671,0.46,13.376,1.141,20.042c0.67,6.554,2.022,13.011,2.766,19.55c0.896,7.868,0.741,15.738,2.138,23.563
	c1.392,7.796,2.995,15.587,4.016,23.443c1.868,14.36,1.657,29.019,3.729,43.305c0.988,6.808,0.352,13.562,1.432,20.378
	c0.856,5.407,0.791,10.776,1.133,16.151c-1.367-0.701-3.106-0.74-4.595,0.491c-5.206,4.297-12.441,3.977-18.807,4.004
	c-3.187,0.013-6.373,0.094-9.56,0.11c-5.046,0.025-8.449-1.452-12.971-3.529c-3.276-1.505-7.35,1.696-5.234,5.234
	c3.112,5.206,1.954,11.48,1.811,17.258c-0.183,7.364-1.825,13.815-5.466,20.27c-4.034,7.155-9.974,13.899-17.068,18.64
	c-11.129,1.031-22.203,2.719-33.349,3.31c-7.468,0.395-15.041,0.52-22.482,1.101c-7.668,0.598-14.982,1.916-22.732,1.434
	c-7.282-0.453-14.07-1.593-21.426-1.251c-7.539,0.351-15.046,0.523-22.594,0.594c-15.582,0.148-30.977,0.545-46.492,1.734
	c-6.962,0.533-13.863,2.393-20.828,2.521c-8.207,0.15-15.925-0.654-24.134,0.307c-7.083,0.829-14.206,0.101-21.266,0.967
	c-3.947,0.484-7.661,0.534-11.647,0.494c-0.884-0.009-2.84-0.359-3.696-0.016c0-0.005,0.001-0.01,0.001-0.015
	c1.157-3.279-0.736-8.533-1.096-11.801c-0.354-3.214-0.932-6.31-1.413-9.492c-0.696-4.604-0.274-9.293-0.963-13.948
	c-0.523-3.532-0.542-6.928-0.558-10.492c-0.027-6.483-1.42-12.91-1.904-19.384c-0.106-1.416-0.336-2.895-0.769-4.27
	c1.784-0.248,3.587-0.309,5.396-0.116c2.872,0.306,6.236,0.91,8.904,2.005c2.463,1.011,4.546,2.618,7.153,3.345
	c0.734,0.205,1.456,0.342,2.17,0.451c12.2,8.688,29.172,0.582,33.062-13.697c1.953-7.169,0.964-16.111-2.704-22.584
	c-2.961-5.224-11.258-10.111-17.406-9.55c-1.101,0.101-2.085,0.618-2.858,1.349c-4.967-5.562-11.389-9.854-18.488-12.213
	c-4.101-1.362-8.999-2.604-13.344-2.62c-2.508-0.01-5.046,0.403-7.579,0.964c-0.262-0.71-0.614-1.468-0.867-2.491
	c-0.675-2.734,0.076-6.092-0.314-8.917c-0.666-4.828-1.794-9.577-2.557-14.358c-0.488-3.054-0.616-5.669-1.515-8.666
	c-0.351-1.43-0.833-2.814-1.435-4.158c2.481-0.558,5.019-0.78,7.564-0.509c2.872,0.306,6.237,0.91,8.904,2.005
	c2.464,1.011,4.548,2.618,7.153,3.345c0.736,0.205,1.456,0.342,2.17,0.451c12.2,8.688,29.172,0.582,33.062-13.697
	c1.953-7.169,0.964-16.111-2.704-22.584c-2.961-5.224-11.258-10.111-17.406-9.55c-1.101,0.101-2.086,0.618-2.858,1.349
	c-4.967-5.562-11.389-9.856-18.488-12.213c-4.101-1.362-8.999-2.604-13.345-2.62c-2.258-0.009-4.539,0.318-6.818,0.793
	c-0.114-1.934-0.523-3.914-0.834-6.19c-0.64-4.67-0.311-9.36-0.635-14.047c-0.297-4.275-1.634-8.335-1.929-12.601
	c-0.137-1.987-0.423-3.5-0.875-4.898c0.525,0.015,1.052,0.044,1.58,0.099c2.872,0.306,6.236,0.91,8.904,2.005
	c2.463,1.011,4.546,2.618,7.153,3.345c0.735,0.205,1.456,0.342,2.17,0.451c12.2,8.688,29.172,0.582,33.062-13.697
	c1.953-7.169,0.964-16.111-2.704-22.584c-2.961-5.224-11.258-10.111-17.406-9.55c-1.101,0.101-2.085,0.618-2.858,1.349
	c-4.967-5.562-11.389-9.856-18.488-12.213c-4.101-1.362-8.999-2.604-13.344-2.62c-3.39-0.013-6.833,0.733-10.243,1.599
	c0-0.857,0.005-1.714-0.085-2.56c-0.058-0.545-0.163-1.088-0.287-1.63c0.213-1.231-0.114-2.493-1.185-3.476
	c-0.097-0.217-0.199-0.43-0.301-0.644c-1.842-8.085-1.292-16.894-2.876-25.14c0.856-0.014,1.714,0.019,2.573,0.11
	c2.872,0.306,6.237,0.91,8.904,2.005c2.464,1.011,4.548,2.618,7.153,3.345c0.736,0.205,1.456,0.342,2.17,0.451
	c12.2,8.688,29.172,0.582,33.062-13.697c1.953-7.169,0.964-16.111-2.704-22.584c-2.961-5.224-11.258-10.111-17.406-9.55
	c-1.101,0.101-2.085,0.618-2.858,1.349c-4.967-5.562-11.389-9.856-18.488-12.213c-4.101-1.362-8.999-2.604-13.345-2.62
	c-2.482-0.01-4.994,0.394-7.501,0.946c0.172-5.583-0.218-10.613-1.491-16.296c-0.698-3.114-1.328-6.266-2.104-9.36
	C79.375,44.974,78.279,43.619,81.742,42.09z M61.864,69.641c3.057-5.258,6.901-10.505,8.961-16.274
	c0.044-0.123,0.092-0.25,0.137-0.374c1.962,7.771,3.292,15.27,3.543,23.339c-0.453,0.103-0.906,0.213-1.355,0.303
	c-7.004,1.428-13.114,3.456-18.444,7.066C57.057,79.019,59.288,74.072,61.864,69.641z M53.21,141.684
	c-0.563,1.131-1.23,2.404-1.864,3.741c-8.374,5.866-11.231-11.66-10.234-17.228c0.744-4.153,2.407-8.083,3.598-12.112
	c1.079-3.66,3.067-6.265,4.413-9.72c0.516-1.324,1.065-2.595,1.65-3.82c1.588-0.394,2.872-1.67,2.783-3.845
	c-0.013-0.315-0.048-0.623-0.09-0.928c3.102-4.615,7.257-8.123,13.449-10.079c4.608-1.455,9.41-2.06,14.114-3.086
	c5.111-1.114,9.328-2.379,14.609-1.457c8.943,1.563,17.739,5.859,23.11,13.4c2.547,3.577,4.735,7.864,6.509,11.888
	c2.28,5.167-0.673,10.517-4.936,13.915c-0.802,0.639-1.575,1.066-2.331,1.33c-0.706,0.096-1.406,0.204-2.092,0.334
	c-2.393-0.049-4.701-1.481-7.271-2.885c-3.574-1.954-7.956-2.875-11.957-3.541c-8.531-1.417-16.903,1.284-24.231,5.552
	C64.698,127.651,57.256,133.554,53.21,141.684z M84.027,163.082c-7.136,1.936-13.253,4.864-18.489,10.057
	c-0.259-0.773-0.5-1.568-0.644-2.44c-0.516-3.116,0.081-6.742-0.052-9.924c-0.178-4.275-0.611-8.662-2.957-12.208
	c0.031-0.83-0.098-1.691-0.435-2.577c-0.079-0.208-0.195-0.386-0.327-0.547c0.306-0.494,0.536-0.864,0.621-1.008
	c3.307-5.569,8.92-9.51,14.433-12.736c2.499-1.463,5.189-2.778,7.985-3.724c-0.129,4.12,0.692,8.09,0.816,12.462
	c0.09,3.182-0.027,6.638,0.194,9.99c-0.194,1.189-0.212,2.407-0.261,3.741c-0.076,2.091-0.583,4.162-0.82,6.249
	C83.995,161.293,83.975,162.192,84.027,163.082z M69.123,226.94c-0.563,1.131-1.23,2.404-1.864,3.741
	c-8.374,5.866-11.231-11.659-10.234-17.228c0.744-4.153,2.409-8.083,3.598-12.112c1.079-3.66,3.067-6.265,4.413-9.72
	c3.456-8.868,8.175-15.636,17.792-18.674c1.909-0.603,3.853-1.057,5.808-1.459c0.957,0.485,2.065,0.789,3.355,0.833
	c1.953,0.066,3.52-0.929,4.526-2.373c0.142-0.03,0.285-0.058,0.426-0.089c5.111-1.114,9.328-2.379,14.609-1.456
	c8.943,1.563,17.74,5.859,23.11,13.4c2.548,3.577,4.735,7.864,6.51,11.886c2.28,5.167-0.673,10.517-4.936,13.915
	c-0.802,0.639-1.575,1.066-2.331,1.33c-0.706,0.096-1.406,0.204-2.094,0.334c-2.393-0.05-4.701-1.481-7.271-2.885
	c-3.576-1.954-7.956-2.875-11.957-3.54c-8.531-1.419-16.903,1.284-24.231,5.552C80.61,212.908,73.168,218.81,69.123,226.94z
	 M100.396,230.255c-0.012,6.697-1.339,15.365,0.815,22.185c-7.399,1.579-13.786,3.888-19.297,8.129
	c-0.896-5.303-1.67-10.598-1.984-16.074c-0.226-3.963-0.15-8.935-2.308-12.425c-0.067-0.272-0.152-0.547-0.258-0.824
	c-0.079-0.208-0.195-0.386-0.328-0.547c0.307-0.494,0.536-0.864,0.621-1.008c3.307-5.569,8.92-9.51,14.433-12.736
	c2.397-1.403,4.971-2.672,7.647-3.608C99.555,218.961,100.405,224.795,100.396,230.255z M82.146,317.3
	c-0.563,1.131-1.23,2.404-1.864,3.741c-8.374,5.866-11.231-11.659-10.234-17.228c0.744-4.153,2.407-8.083,3.598-12.112
	c1.079-3.66,3.067-6.265,4.413-9.72c3.456-8.868,8.175-15.636,17.792-18.674c4.608-1.455,9.41-2.06,14.114-3.086
	c5.111-1.114,9.328-2.379,14.609-1.456c8.943,1.563,17.739,5.859,23.11,13.4c2.547,3.577,4.735,7.864,6.509,11.886
	c2.28,5.167-0.673,10.517-4.936,13.915c-0.802,0.639-1.575,1.066-2.331,1.33c-0.706,0.096-1.406,0.204-2.092,0.334
	c-2.393-0.05-4.701-1.481-7.271-2.885c-3.574-1.954-7.956-2.875-11.957-3.54c-8.531-1.419-16.903,1.284-24.231,5.552
	C93.634,303.269,86.192,309.171,82.146,317.3z M90.459,320.414c0.102-0.167,0.179-0.292,0.221-0.361
	c3.307-5.569,8.92-9.51,14.433-12.736c1-0.586,2.032-1.146,3.089-1.672c0.481,9.356,3.037,18.653,2.806,27.99
	c-0.084,3.401-0.409,7.447,0.886,10.355c-6.954,1.447-13.02,3.514-18.311,7.169c-0.034-0.143-0.067-0.281-0.101-0.427
	c-0.867-3.798-0.776-7.652-0.746-11.534C92.782,332.949,93.568,326.043,90.459,320.414z M93.235,407.323
	c-0.163-0.053-0.32-0.111-0.491-0.152c-2.937-0.709-4.86,3.423-2.098,4.976c0.031,0.017,0.053,0.05,0.083,0.07
	c-0.079,0.161-0.156,0.312-0.234,0.475c-8.374,5.866-11.23-11.66-10.234-17.228c0.744-4.153,2.409-8.083,3.598-12.112
	c1.079-3.66,3.067-6.265,4.413-9.72c3.456-8.868,8.175-15.636,17.792-18.674c4.608-1.455,9.409-2.06,14.114-3.086
	c5.111-1.114,9.328-2.379,14.609-1.456c8.943,1.562,17.74,5.859,23.11,13.4c2.548,3.577,4.735,7.864,6.51,11.886
	c2.28,5.167-0.673,10.517-4.936,13.915c-0.802,0.639-1.575,1.066-2.331,1.33c-0.706,0.096-1.406,0.204-2.094,0.334
	c-2.393-0.05-4.701-1.481-7.271-2.885c-3.576-1.954-7.956-2.875-11.957-3.54c-8.531-1.419-16.903,1.284-24.231,5.552
	C104.374,394.613,97.422,400.025,93.235,407.323z M111.139,491.918c-0.201-0.602-0.408-1.197-0.589-1.83
	c-1.346-4.705-2.995-9.321-4.128-14.09c-1.022-4.297-1.004-8.578-1.572-12.923c-0.583-4.456-1.119-8.597-1.239-13.115
	c-0.105-3.963-1.261-7.696-1.466-11.629c-0.341-6.506-1.062-12.857-2.078-19.302c0.999-1.726,1.328-3.682,0.534-5.771
	c-0.079-0.208-0.195-0.386-0.327-0.547c0.307-0.494,0.536-0.864,0.621-1.008c3.307-5.569,8.92-9.51,14.433-12.736
	c1.523-0.892,3.12-1.726,4.767-2.459c-0.067,3.452-0.784,10.808-0.639,11.818c1.065,7.401,0.124,14.684,1.075,22.107
	c0.519,4.046,0.08,8.019,0.537,12.048c0.426,3.76,1.167,7.461,1.598,11.232c0.376,3.288,0.812,6.342,0.763,9.648
	c-0.022,1.448-0.039,2.862,0.174,4.22c-3.956,4.115-6.51,10.092-9.08,15.075C112.987,485.63,112.041,488.772,111.139,491.918z
	 M448.507,473.629c-1.419,3.627-2.459,6.844-4.585,10.136c-0.731,1.131-1.851,3.722-2.833,4.544
	c-0.674,0.564-0.827,0.847-0.831,0.977c-0.178-0.072-0.664-0.154-1.865-0.11c-3.631,0.133-7.496-0.656-11.212-0.577
	c-4.271,0.09-8.543,0.106-12.808,0.39c-8.589,0.572-17.072,1.017-25.684,1.016c-8.049,0-16.338-0.7-24.357-0.247
	c-8.58,0.484-17.148,1.364-25.751,1.851c-18.08,1.024-36.494-0.33-54.477,1.428c-16.456,1.608-32.871,2.012-49.308,3.68
	c-17.899,1.816-35.541,2.568-53.536,2.414c-7.974-0.067-16.011-0.454-23.978-0.173c-3.648,0.129-7.395,1.457-10.974,1.328
	c-3.425-0.123-6.87-1.457-10.386-1.712c-5.801-0.42-11.431,0.089-17.149,0.984c-0.986,0.155-2.251,0.187-3.364,0.423
	c2.632-4.016,4.335-8.249,6.783-12.847c2.109-3.963,5.24-8.305,6.776-12.843c3.793,1.478,8.595,0.687,12.498,0.564
	c8.078-0.256,16.075-1.321,24.183-1.673c7.901-0.343,15.364-1.598,23.313-1.197c8.868,0.448,16.801-1.247,25.557-2.148
	c16.257-1.674,32.491-1.922,48.833-1.767c7.544,0.072,15.055,0.044,22.594-0.165c8.016-0.221,15.617,1.428,23.569,1.838
	c7.797,0.404,15.333-1.024,23.081-1.1c8.512-0.084,16.899-0.152,25.411-0.867c15.875-1.336,31.727-2.756,47.643-3.94
	c17.052-1.268,33.964-4.53,50.993-5.935C454.452,463.347,450.665,468.113,448.507,473.629z M463.038,444.543
	c-2.506,0.834-6.258,0.391-8.956,0.745c-3.795,0.497-7.621,0.487-11.411,1.055c-11.904,1.784-23.984,3.43-36.043,4.417
	c3.647-1.748,7.38-3.379,10.726-5.655c6.55-4.457,12.191-10.572,17.509-16.388c5.756-6.296,11.779-12.281,17.842-18.28
	c2.165-2.142,4.851-4.327,7.173-6.749c0.769,3.703,1.615,7.384,2.37,11.185c0.671,3.383,0.654,6.865,1.18,10.275
	c0.546,3.543,2.006,6.907,2.389,10.464c0.119,1.11,0.423,2.086,0.864,2.925C466.249,441.246,465.379,443.765,463.038,444.543z"/>
<path d="M194.627,100.801c5.813,2.475,12.798-0.232,18.208-2.482c7.213-3.001,11.833-9.17,19.149-11.968
	c4.477-1.713,9.17-3.489,14.003-2.34c3.972,0.945,7.505,3.174,11.175,4.867c16.221,7.479,35.944,2.71,52.048-2.728
	c5.174-1.747,10.146-4.06,15.689-4.242c5.166-0.17,10.249,1.095,15.325,1.841c10.625,1.563,21.303,0.812,31.914-0.399
	c3.48-0.398,3.518-5.081,0-5.446c-10.691-1.111-21.48-0.203-32.121-1.793c-8.165-1.221-15.959-2.629-24.05-0.123
	c-17.419,5.396-38.287,15.33-56.403,7.049c-5.791-2.648-11.361-5.968-17.964-5.658c-6.003,0.281-13.227,3.117-18.297,6.279
	c-3.165,1.972-5.425,5.014-8.484,7.098c-2.912,1.985-6.627,3.469-9.946,4.524c-5.316,1.691-9.009,1.953-13.202-2.117
	c-2.617-2.539-4.736-5.53-7.002-8.37c-0.99-1.241-3.155,0.409-2.218,1.712C185.89,91.279,188.873,98.352,194.627,100.801z"/>
<path d="M353.985,110.68c-9.765-0.621-20.255-5.108-30.044-2.223c-4.042,1.191-6.999,4.068-10.367,6.419
	c-4.15,2.899-8.863,4.368-13.479,6.334c-10.234,4.359-18.369,9.718-29.534,4.633c-7.639-3.479-14.309-8.64-22.82-9.897
	c-9.758-1.442-17.057,0.871-25.163,6.159c-6.352,4.144-33.508,20.927-37.742,9.832c-0.547-1.435-2.685-0.902-2.334,0.644
	c2.983,13.129,21.188,5.996,29.069,2.658c2.45-1.038,4.891-2.123,7.299-3.256c5.25-2.469,9.936-6.641,15.43-8.505
	c11.796-4.002,21.774,3.234,31.76,8.152c9.081,4.473,17.425,4.824,26.788,0.913c8.853-3.698,18.796-6.999,26.46-12.848
	c5.237-3.998,9.503-5.379,16.138-4.705c5.857,0.595,11.567,2.14,17.454,2.534c5.981,0.4,11.81,0.893,17.655,2.38
	c4.366,1.111,7.956,2.542,12.445,1.392c2.379-0.609,1.571-3.693-0.537-3.962c-5.157-0.657-10.073-3.458-15.108-4.762
	C362.886,111.416,358.575,110.971,353.985,110.68z"/>
<path d="M181.646,170.422c8.32-3.062,17.041-4.527,25.908-4.524c4.433,0.001,8.91,0.758,13.336,0.296
	c3.687-0.386,7.017-2.045,10.624-2.773c18.299-3.692,36.839,5.503,55.168,5.511c8.996,0.004,17.23-2.144,25.972-3.844
	c8.7-1.691,17.636-0.266,26.375-1.61c8.001-1.23,14.789-3.054,22.928-1.699c5.715,0.953,14.517,1.685,19.205,5.344
	c1.497,1.168,4.162-0.328,2.892-2.231c-5.983-8.96-23.563-11.126-33.423-10.048c-4.93,0.54-9.647,2.214-14.576,2.743
	c-4.424,0.475-8.899,0.265-13.337,0.369c-10.341,0.244-19.94,3.763-30.206,4.55c-19.79,1.519-38.683-7.558-58.422-5.464
	c-4.29,0.454-7.805,2.103-11.907,3.107c-5.064,1.239-10.478,0.241-15.626,0.525c-8.828,0.487-17.8,2.493-26.022,5.711
	C178.068,167.351,179.094,171.361,181.646,170.422z"/>
<path d="M356.146,226.484c-2.698-1.083-4.891-3.017-7.221-4.704c-4.206-3.045-8.728-5.645-14.11-4.922
	c-8.73,1.172-11.698,9.692-17.121,15.301c-3.904,4.037-11.065,4.461-15.638,1.154c-4.169-3.017-5.863-8.509-10.86-10.651
	c-7.723-3.308-14.163,3.35-18.41,8.924c-2.867,3.764-5.382,8.135-9.102,11.147c-6.487,5.251-15.992,1.492-21.022-4.1
	c-4.668-5.189-3.745-19.358-13.713-18.441c-4.987,0.458-7.634,5.246-9.556,9.28c-1.896,3.981-4.06,7.677-6.589,11.301
	c-3.226,4.623-7.33,10.475-10.026,2.189c-1.484-4.561-1.606-9.545-1.812-14.298c-0.101-2.307-3.685-2.325-3.602,0
	c-0.194,6.764-1.306,16.021,3.152,21.746c5.265,6.762,11.721,1.15,15.581-3.789c2.361-3.021,4.629-6.257,6.567-9.573
	c1.861-3.185,6.342-15.303,9.448-6.662c1.301,3.62,1.757,7.484,4.069,10.664c3.523,4.845,9.76,8.775,15.574,10.106
	c10.022,2.294,16.739-3.086,22.44-10.585c2.755-3.622,5.343-8.438,9.303-10.901c5.81-3.614,8.839,2.839,12.224,6.551
	c5.787,6.346,17.131,7.802,24.135,2.565c6.178-4.62,9.74-17.731,19.122-15.801c7.24,1.488,11.53,8.931,19.137,10.095
	c5.693,0.87,11.832-1.127,17.066-3.197c4.026-1.593,7.887-3.554,12.023-4.874c5.089-1.625,9.64-2.943,11.219,3.358
	c0.506,2.02,3.813,2.162,4.23,0c1.454-7.532-3.529-11.629-10.833-10.876c-7.669,0.791-14.27,5.295-21.423,7.74
	C365.758,226.816,360.926,228.403,356.146,226.484z"/>
<path d="M377.458,260.344c-8.489-0.013-16.652-2.453-25.102-2.693c-7.978-0.227-15.832,2.021-23.328,4.519
	c-3.182,1.06-6.396,2.107-9.457,3.483c-2.564,1.153-4.838,2.757-7.794,2.706c-2.353-0.04-4.763-1.195-7.021-1.762
	c-15.026-3.771-33.956-0.232-48.481,4.301c-8.171,2.551-15.827,6.019-24.33,7.457c-9.703,1.639-19.533,1.415-29.318,2.072
	c0.001,0.009,0.003,0.018,0.004,0.027c-1.879,0.063-2.145,2.972-0.004,3.12c17.631,1.219,34.036,0.032,50.833-5.477
	c16.895-5.542,36.124-8.46,53.488-4.017c7.415,1.898,12.041-1.22,18.832-3.711c8.384-3.076,17.566-5.997,26.578-5.675
	c8.033,0.288,15.81,2.651,23.875,2.801c9.759,0.181,19.757,0.453,29.469-0.515c3.919-0.391,3.923-5.706,0-6.102
	C396.325,259.931,386.87,260.358,377.458,260.344z"/>
<path d="M403.741,297.811c-3.955-1.146-8.045-2.96-12.103-3.602c-3.884-0.614-7.796,0.066-11.697-0.279
	c-4.768-0.422-10.076-1.222-14.697-2.531c-3.559-1.009-6.749-3.062-10.555-3.026c-7.419,0.068-15.335,4.601-22.19,7.118
	c-8.712,3.2-16.961,7.424-25.476,11.079c-10.249,4.399-20.038,6.998-30.423,1.632c-6.785-3.505-13.307-7.891-21.246-7.971
	c-7.402-0.075-13.859,4.373-20.233,7.522c-9,4.444-18.14,7.531-28.214,8.122c-2.893,0.17-2.946,4.539,0,4.539
	c8.576-0.001,16.815-1.503,24.831-4.568c7.381-2.823,15.564-9.014,23.616-8.934c8.774,0.088,15.82,7.114,23.729,10.012
	c8.037,2.944,16.502,1.531,24.382-1.255c9.157-3.237,17.729-7.931,26.747-11.516c3.861-1.535,7.824-2.768,11.699-4.26
	c3.789-1.459,8.602-4.255,12.781-4.128c4.079,0.124,8.231,2.784,12.305,3.595c4.239,0.843,8.631,1.648,12.947,1.956
	c4.704,0.334,9.143-0.222,13.808,0.651c3.476,0.651,6.481,1.212,9.99,0.367C406.042,301.779,405.905,298.438,403.741,297.811z"/>
<path d="M367.604,367.493c-5.577-0.879-10.468-4.821-15.995-6.05c-6.121-1.361-12.427-0.762-18.627-0.5
	c-13.73,0.581-25.045-7.71-38.864-3.642c-13.487,3.972-26.057,11.256-39.808,14.255c-6.878,1.5-14.019,1.695-20.956,0.559
	c-4.561-0.747-11.295-0.324-14.748-3.71c-1.787-1.752-4.488,0.95-2.746,2.746c2.872,2.957,7.19,3.627,11.077,4.388
	c5.272,1.03,10.393,2.384,15.795,2.575c15.125,0.534,28.261-5.597,42.247-10.38c8.06-2.756,16.127-6.279,24.712-3.92
	c6.399,1.757,12.17,4.372,18.92,4.478c7.515,0.117,15.57-1.635,22.888,0.7c6.076,1.938,9.696,5.409,16.102,3.074
	C369.553,371.354,370.141,367.893,367.604,367.493z"/>
<path d="M167.863,414.992c1.789-2.42-2.085-5.277-4.118-3.177c-1.487,1.536-2.618,3.367-4.131,4.877
	c-1.536,1.535-3.261,2.859-4.739,4.463c-2.435,2.642-5.182,6.092-4.326,9.887c0.293,1.297,2.122,2.157,3.259,1.326
	c2.871-2.099,4.558-5.637,7.052-8.183C163.685,421.301,165.495,418.194,167.863,414.992z"/>
<path d="M173.997,425.938c2.33-2.016-0.781-6.143-3.33-4.317c-3.268,2.343-6.23,4.9-9.103,7.709c-2.401,2.347-4.912,5.049-5,8.573
	c-0.061,2.462,2.984,3.483,4.666,1.932c0.279-0.258,0.466-0.529,0.611-0.811C165.146,434.194,169.602,429.742,173.997,425.938z"/>
<path d="M177.084,434.922c-1.166-0.698-2.397-0.161-3.139,0.824c-1.096,1.456-2.246,2.85-3.556,4.122
	c-1.281,1.241-2.636,2.46-3.666,3.928c-0.652,0.929,0.044,2.182,1.009,2.481c2.305,0.715,4.705-1.002,6.101-2.655
	c1.481-1.756,2.769-3.675,4.075-5.561C178.619,437.036,178.09,435.524,177.084,434.922z"/>
<path d="M178.241,482.084c0.179,1.825-2.348,3.672-3.376,4.998c-1.882,2.424-3.008,5.309-0.838,7.953
	c0.851,1.038,2.837,0.991,3.693,0c0.895-1.037,1.319-2.242,2.021-3.427c0.621-1.047,1.41-1.971,2.145-2.935
	c1.632-2.139,2.655-4.639,1.948-7.345C183.049,478.308,177.919,478.814,178.241,482.084z"/>
<path d="M201.288,479.045c-2.424,1.966-4.721,4.87-6.257,7.564c-0.9,1.577-1.633,3.372-1.222,5.218
	c0.509,2.291,2.777,3.458,4.903,2.407c0.669-0.33,1.15-1.203,1.113-1.94c-0.026-0.52-0.054-1.013-0.101-1.541
	c-0.025-0.276-0.006-0.126,0.012-0.207c0.265-1.131,0.74-2.113,1.312-3.121c1-1.766,2.219-3.518,3.736-4.887
	C207.18,480.372,203.709,477.082,201.288,479.045z"/>
<path d="M215.309,480.158c-2.921,2.533-7.757,6.157-7.528,10.499c0.154,2.93,4.154,4.314,5.717,1.549
	c0.856-1.514,1.35-3.084,2.398-4.526c0.96-1.322,2.142-2.486,3.263-3.67C221.593,481.437,217.94,477.879,215.309,480.158z"/>
<path d="M230.313,479.83c-0.741-0.106-1.342-0.115-2.085-0.006c-1.155,0.169-1.783,1.419-1.685,2.539
	c-1.845,2.349-5.028,4.595-3.898,7.755c0.605,1.696,2.176,2.223,3.767,1.532c1.389-0.603,2.756-2.694,3.623-3.936
	c1.008-1.443,1.775-2.979,2.068-4.728C232.311,481.759,231.793,480.041,230.313,479.83z"/>
<path d="M302.431,477.844c-1.244,0-2.573,0.909-2.845,2.166c-0.014,0.089-0.045,0.176-0.07,0.262
	c-0.037,0.046-0.141,0.213-0.207,0.332c-0.111,0.128-0.257,0.301-0.289,0.334c-0.299,0.316-0.543,0.616-0.815,0.978
	c-0.886,1.188-1.695,2.83-1.137,4.326c0.756,2.029,3.212,2.926,4.889,1.291c0.338-0.329,0.639-0.711,0.818-1.151
	c0.015-0.037,0.018-0.052,0.026-0.077l0.001-0.001c0.511-0.522,0.955-1.066,1.395-1.652c1.074-1.432,1.319-2.89,1.077-4.642
	C305.101,478.75,303.601,477.844,302.431,477.844z"/>
<path d="M320.905,477.822c-1.364-0.163-3.064,0.665-3.32,2.167c-0.022,0.174-0.062,0.343-0.11,0.511
	c-0.05,0.093-0.103,0.185-0.164,0.272c-0.447,0.563-0.917,1.104-1.342,1.685c-0.423,0.577-0.813,1.203-0.991,1.905
	c-0.158,0.62-0.187,1.335-0.032,1.96c0.085,0.329,0.209,0.644,0.37,0.946c-0.164-0.333-0.179-0.321-0.049,0.035
	c0.741,2.4,3.696,2.441,4.867,0.549c0.035-0.027,0.075-0.059,0.142-0.124c0.167-0.216,0.332-0.43,0.498-0.645
	c0.152-0.217,0.275-0.444,0.413-0.669c0.088-0.143,0.227-0.352,0.247-0.391c0.199-0.254,0.404-0.502,0.596-0.76
	c0.964-1.295,1.531-2.844,1.501-4.47C323.501,479.298,322.4,478,320.905,477.822z"/>
<g>
</g>
<g>
</g>
<g>
</g>
<g>
</g>
<g>
</g>
<g>
</g>
<g>
</g>
<g>
</g>
<g>
</g>
<g>
</g>
<g>
</g>
<g>
</g>
<g>
</g>
<g>
</g>
<g>
</g>
</svg>
