<?xml version="1.0" encoding="iso-8859-1"?>
<!-- Generator: Adobe Illustrator 18.0.0, SVG Export Plug-In . SVG Version: 6.00 Build 0)  -->
<!DOCTYPE svg PUBLIC "-//W3C//DTD SVG 1.1//EN" "http://www.w3.org/Graphics/SVG/1.1/DTD/svg11.dtd">
<svg version="1.1" id="Capa_1" xmlns="http://www.w3.org/2000/svg" xmlns:xlink="http://www.w3.org/1999/xlink" x="0px" y="0px"
	 viewBox="0 0 302.143 302.143" style="enable-background:new 0 0 302.143 302.143;" xml:space="preserve">
<g>
	<path d="M151.071,142.244c-25.002,0-45.343,20.341-45.343,45.343s20.341,45.342,45.343,45.342s45.343-20.34,45.343-45.342
		S176.073,142.244,151.071,142.244z"/>
	<path d="M277.393,87.21h-17.968c2.915-2.288,4.795-5.836,4.795-9.829v-50.7c0-6.903-5.597-12.5-12.5-12.5h-73.864
		c-6.903,0-12.5,5.597-12.5,12.5v50.7c0,3.993,1.88,7.541,4.795,9.829H72.314v-9.214c0-7.739-6.274-14.013-14.013-14.013H47.998
		c-7.739,0-14.013,6.274-14.013,14.013v9.214H24.75C11.081,87.21,0,98.291,0,111.96v151.252c0,13.669,11.081,24.75,24.75,24.75
		h252.643c13.669,0,24.75-11.081,24.75-24.75V111.96C302.143,98.291,291.062,87.21,277.393,87.21z M190.355,39.18h48.864v25.7
		h-48.864V39.18z M151.071,272.928c-47.059,0-85.343-38.284-85.343-85.342c0-47.059,38.284-85.343,85.343-85.343
		s85.343,38.284,85.343,85.343C236.414,234.644,198.13,272.928,151.071,272.928z"/>
</g>
<g>
</g>
<g>
</g>
<g>
</g>
<g>
</g>
<g>
</g>
<g>
</g>
<g>
</g>
<g>
</g>
<g>
</g>
<g>
</g>
<g>
</g>
<g>
</g>
<g>
</g>
<g>
</g>
<g>
</g>
</svg>
