<?xml version="1.0" encoding="iso-8859-1"?>
<!-- Generator: Adobe Illustrator 19.0.0, SVG Export Plug-In . SVG Version: 6.00 Build 0)  -->
<svg xmlns="http://www.w3.org/2000/svg" xmlns:xlink="http://www.w3.org/1999/xlink" version="1.1" id="Layer_1" x="0px" y="0px" viewBox="0 0 512 512" style="enable-background:new 0 0 512 512;" xml:space="preserve" width="512px" height="512px">
<g>
	<g>
		<path d="M457.143,0c-5.75,0-396.534,0-402.286,0C24.609,0,0,24.609,0,54.857c0,5.751,0,396.536,0,402.286    C0,487.391,24.609,512,54.857,512c5.751,0,396.536,0,402.286,0C487.391,512,512,487.391,512,457.143c0-5.75,0-396.535,0-402.286    C512,24.609,487.391,0,457.143,0z M36.571,54.857c0-10.083,8.203-18.286,18.286-18.286h182.857v33.718    c-37.111-3.415-73.143,25.422-73.143,66.854c0,41.255,35.853,70.281,73.143,66.854v33.718h-58.331    c-14.07,0-22.858,15.265-15.837,27.429c11.694,20.258-3.029,45.714-26.403,45.714c-23.97,0-37.837-25.91-26.403-45.716    c7.034-12.186-1.792-27.427-15.837-27.427H36.571V54.857z M237.714,417.085v58.344H54.857c-10.083,0-18.286-8.203-18.286-18.286    V274.286h33.718c-3.41,37.142,25.442,73.143,66.854,73.143c41.234,0,70.282-35.811,66.854-73.143h33.718v58.319    c0,11.966,11.362,20.759,22.979,17.674c4.213-1.119,17.669-11.735,34.951-1.758c9.561,5.52,15.213,15.053,15.213,26.324    c0,23.887-25.818,37.889-45.716,26.405C252.958,394.213,237.714,403.04,237.714,417.085z M475.429,457.143    c0,10.083-8.203,18.286-18.286,18.286H274.286V441.7c37.194,3.417,73.143-25.5,73.143-66.855    c0-41.306-35.896-70.268-73.143-66.854v-33.705h58.331c14.075,0,22.853-15.271,15.837-27.427    c-11.532-19.978,2.606-45.716,26.403-45.716c24.034,0,37.826,25.927,26.403,45.716c-7.034,12.186,1.792,27.427,15.837,27.427    h58.331V457.143z M475.429,237.714h-33.718c3.429-37.365-25.652-73.143-66.854-73.143c-41.203,0-70.281,35.794-66.854,73.143    h-33.718v-58.331c0-14.068-15.264-22.858-27.427-15.837c-20.023,11.558-45.716-2.692-45.716-26.403    c0-23.679,25.656-37.979,45.716-26.403c12.183,7.035,27.427-1.792,27.427-15.837V36.571h182.857    c10.083,0,18.286,8.203,18.286,18.286V237.714z" fill="#235e99"/>
	</g>
</g>
<g>
</g>
<g>
</g>
<g>
</g>
<g>
</g>
<g>
</g>
<g>
</g>
<g>
</g>
<g>
</g>
<g>
</g>
<g>
</g>
<g>
</g>
<g>
</g>
<g>
</g>
<g>
</g>
<g>
</g>
</svg>
