<?xml version="1.0" encoding="iso-8859-1"?>
<!-- Generator: Adobe Illustrator 19.0.0, SVG Export Plug-In . SVG Version: 6.00 Build 0)  -->
<svg version="1.1" id="Layer_1" xmlns="http://www.w3.org/2000/svg" xmlns:xlink="http://www.w3.org/1999/xlink" x="0px" y="0px"
	 viewBox="0 0 512 512" style="enable-background:new 0 0 512 512;" xml:space="preserve">
<circle style="fill:#002833;" cx="256" cy="256.04" r="77.92"/>
<path style="fill:#FF5F5F;" d="M512,294.44v-76.8l-78.08-7.84c-4.48-16.4-11.28-31.84-20.08-46l50.4-61.52L410,48.04l-64,52.4
	c-13.36-7.04-27.76-12.48-42.96-15.92L294.56,0.2h-38.4h-0.32h-38.4l-8.4,84.32c-15.12,3.44-29.52,8.8-42.96,15.92l-64-52.4
	l-54.24,54.24l50.4,61.52c-8.72,14.16-15.6,29.6-20.08,46L0,217.64v76.72l78.24,7.84c4.48,16.4,11.28,31.84,20,46l-50.4,61.6
	l54.24,54.24l64-52.4c13.36,7.04,27.76,12.48,42.96,15.84l8.4,84.32h38.4h0.32h38.4l8.4-84.32c15.12-3.44,29.52-8.8,42.96-15.84
	l64,52.4l54.24-54.24l-50.4-61.6c8.72-14.16,15.44-29.6,20-46L512,294.44z M256,371.48c-63.76,0-115.44-51.68-115.44-115.44
	S192.24,140.6,256,140.6s115.44,51.68,115.44,115.44S319.76,371.48,256,371.48z"/>
<g>
</g>
<g>
</g>
<g>
</g>
<g>
</g>
<g>
</g>
<g>
</g>
<g>
</g>
<g>
</g>
<g>
</g>
<g>
</g>
<g>
</g>
<g>
</g>
<g>
</g>
<g>
</g>
<g>
</g>
</svg>
