<?xml version="1.0" encoding="iso-8859-1"?>
<!-- Generator: Adobe Illustrator 19.0.0, SVG Export Plug-In . SVG Version: 6.00 Build 0)  -->
<svg version="1.1" id="Layer_1" xmlns="http://www.w3.org/2000/svg" xmlns:xlink="http://www.w3.org/1999/xlink" x="0px" y="0px"
	 viewBox="0 0 512 512" style="enable-background:new 0 0 512 512;" xml:space="preserve">
<circle style="fill:#808080;" cx="256.007" cy="256.007" r="232.861"/>
<g>
	<path style="fill:#4D4D4D;" d="M464.515,197.764c-20.662-74.202-79.871-132.332-154.7-151.473
		c-17.193-4.402-35.227-6.75-53.808-6.75c-60.597,0-115.392,24.903-154.688,65.025C63.105,143.609,39.549,197.056,39.549,256
		c0,20.289,2.788,39.922,8.016,58.543c20.755,74.083,79.951,132.105,154.728,151.193c17.18,4.388,35.174,6.722,53.714,6.722
		c60.703,0,115.565-24.996,154.874-65.239c38.095-39.028,61.571-92.383,61.571-151.219
		C472.451,235.819,469.691,216.292,464.515,197.764z M256.007,0.007C397.383,0.007,512,114.612,512,256
		S397.381,511.993,256.007,511.993C114.619,511.993,0,397.388,0,256S114.619,0.007,256.007,0.007z"/>
	<path style="fill:#4D4D4D;" d="M256.003,22.236c-128.9,0-233.766,104.866-233.766,233.766s104.867,233.766,233.766,233.766
		S489.769,384.9,489.769,256.001S384.901,22.236,256.003,22.236z M457.133,185.552H239.174l77.313-133.906
		C382.088,71.096,434.574,121.336,457.133,185.552z M295.561,46.585L186.578,235.348l-77.254-133.808
		c38.237-36.328,89.899-58.652,146.678-58.652C269.518,42.889,282.738,44.168,295.561,46.585z M94.479,117.134l108.925,188.664
		H48.778c-3.84-15.982-5.889-32.653-5.889-49.797C42.89,202.999,62.345,154.461,94.479,117.134z M54.872,326.452h217.956
		l-77.31,133.906C129.917,440.907,77.431,390.666,54.872,326.452z M216.444,465.418l108.983-188.763l77.255,133.808
		c-38.236,36.328-89.898,58.652-146.678,58.652C242.488,469.114,229.267,467.835,216.444,465.418z M417.527,394.869L308.602,206.206
		h154.626c3.84,15.982,5.889,32.653,5.889,49.797C469.115,309.004,449.661,357.544,417.527,394.869z"/>
</g>
<g>
</g>
<g>
</g>
<g>
</g>
<g>
</g>
<g>
</g>
<g>
</g>
<g>
</g>
<g>
</g>
<g>
</g>
<g>
</g>
<g>
</g>
<g>
</g>
<g>
</g>
<g>
</g>
<g>
</g>
</svg>
