<?xml version="1.0" encoding="iso-8859-1"?>
<!-- Generator: Adobe Illustrator 19.0.0, SVG Export Plug-In . SVG Version: 6.00 Build 0)  -->
<svg version="1.1" id="Layer_1" xmlns="http://www.w3.org/2000/svg" xmlns:xlink="http://www.w3.org/1999/xlink" x="0px" y="0px"
	 viewBox="0 0 512 512" style="enable-background:new 0 0 512 512;" xml:space="preserve">
<g id="Others">
</g>
<g id="Design">
</g>
<g id="SEO_x2F__Web">
	<g id="spider">
		
			<radialGradient id="SVGID_1_" cx="255.2677" cy="255.3306" r="250.1466" gradientTransform="matrix(1.0234 0 0 -1.0234 -5.2409 517.3054)" gradientUnits="userSpaceOnUse">
			<stop  offset="0.0051" style="stop-color:#1ECA6B"/>
			<stop  offset="0.9949" style="stop-color:#19A658"/>
		</radialGradient>
		<circle style="fill:url(#SVGID_1_);" cx="256" cy="256" r="256"/>
		<path style="fill:#32495D;" d="M295.342,190.101c7.341-8.847,11.757-20.21,11.757-32.604c0-28.223-22.879-33.28-51.099-33.28
			c-28.221,0-51.099,5.058-51.099,33.28c0,12.395,4.415,23.758,11.756,32.604c-38.748,11.548-66.104,39.638-66.104,72.464
			c0,43.123,47.21,78.083,105.446,78.083s105.446-34.96,105.446-78.083C361.446,229.738,334.09,201.648,295.342,190.101z"/>
		<g>
			<g>
				<path style="fill:#32495D;" d="M238.343,148.864c0.523,0.077,1.043,0.114,1.557,0.114c5.178-0.001,9.71-3.794,10.486-9.069
					c0.853-5.799-3.157-11.19-8.956-12.043c-3.704-0.545-10.167-1.987-11.839-5.526c-1.974-4.174,1.305-12.132,3.107-15.128
					c3.043-4.984,1.487-11.495-3.488-14.563c-4.984-3.073-11.525-1.526-14.603,3.463c-1.204,1.953-11.555,19.53-4.266,35.169
					C215.909,143.229,228.642,147.438,238.343,148.864z"/>
				<path style="fill:#32495D;" d="M243.815,257.999h-23.031l4.785-18h18.246c5.861,0,10.612-4.639,10.612-10.5
					s-4.751-10.5-10.612-10.5h-12.628l6.756-25.618l-13.76-0.074c-26.304-0.051-47.282-7.946-62.352-23.421
					c-28.394-29.158-27.696-76.433-27.678-77.335c0.161-5.855-4.453-10.739-10.309-10.904c-5.878-0.186-10.743,4.447-10.907,10.305
					c-0.064,2.302-1.191,56.773,33.57,92.597c16.442,16.945,37.94,26.861,64.041,29.381l-1.316,5.07H93.676
					c-5.861,0-10.612,4.639-10.612,10.5s4.75,10.499,10.612,10.499h109.938l-4.786,18H93.676c-5.861,0-10.612,4.64-10.612,10.5
					c0,5.861,4.751,10.5,10.612,10.5h99.535l-5.905,22.474c-8.006,1.903-21.526,6.242-35.042,15.219
					c-19.377,12.865-42.474,38.099-42.474,85.032c0,5.861,4.751,10.634,10.611,10.634c5.861,0,10.612-4.741,10.612-10.603
					c0-71.076,63.476-80.105,66.142-80.45l7.13-1.037l10.88-41.269h28.65c5.861,0,10.612-4.639,10.612-10.5
					C254.428,262.639,249.677,257.999,243.815,257.999z"/>
			</g>
			<g>
				<path style="fill:#32495D;" d="M273.657,148.864c-0.523,0.077-1.043,0.114-1.557,0.114c-5.178-0.001-9.71-3.794-10.486-9.069
					c-0.853-5.799,3.156-11.19,8.955-12.043c3.705-0.545,10.167-1.987,11.84-5.526c1.973-4.174-1.305-12.132-3.107-15.128
					c-3.043-4.984-1.487-11.495,3.487-14.563c4.985-3.073,11.526-1.526,14.604,3.463c1.204,1.953,11.555,19.53,4.266,35.169
					C296.091,143.229,283.358,147.438,273.657,148.864z"/>
				<path style="fill:#32495D;" d="M268.185,257.999h23.031l-4.785-18h-18.246c-5.861,0-10.612-4.639-10.612-10.5
					s4.751-10.5,10.612-10.5h12.627l-6.755-25.618l13.759-0.074c26.305-0.051,47.282-7.946,62.353-23.421
					c28.394-29.158,27.696-76.433,27.677-77.335c-0.16-5.855,4.453-10.739,10.31-10.904c5.878-0.186,10.742,4.447,10.907,10.305
					c0.064,2.302,1.19,56.773-33.57,92.597c-16.443,16.945-37.941,26.861-64.041,29.381l1.316,5.07h115.558
					c5.861,0,10.612,4.639,10.612,10.5s-4.751,10.5-10.612,10.5h-109.94l4.785,18h105.153c5.861,0,10.612,4.64,10.612,10.5
					c0,5.861-4.751,10.5-10.612,10.5h-99.535l5.905,22.474c8.006,1.903,21.526,6.242,35.042,15.219
					c19.376,12.865,42.474,38.099,42.474,85.032c0,5.861-4.751,10.634-10.612,10.634c-5.86,0-10.612-4.741-10.612-10.603
					c0-71.076-63.475-80.105-66.141-80.45l-7.131-1.037l-10.88-41.27h-28.649c-5.861,0-10.612-4.639-10.612-10.5
					C257.572,262.639,262.323,257.999,268.185,257.999z"/>
			</g>
		</g>
		<circle style="fill:#ECF0F1;" cx="256" cy="264.398" r="52.667"/>
		<circle style="fill:#32495D;" cx="256" cy="264.398" r="26.727"/>
		<path style="fill:#2A3E4F;" d="M418.324,257.999h-57.075c-0.485-6.224-1.95-12.251-4.291-18h61.366
			c5.861,0,10.612-4.639,10.612-10.5s-4.751-10.5-10.612-10.5h-74.822c-3.812-4.188-8.146-8.094-12.953-11.652
			c13.395-5.027,25.084-12.639,34.942-22.799c34.761-35.823,33.635-90.295,33.57-92.597c-0.165-5.857-5.029-10.49-10.907-10.305
			c-5.856,0.165-10.47,5.049-10.31,10.904c0.02,0.902,0.717,48.177-27.677,77.335c-12.184,12.511-28.232,20.062-47.832,22.524
			c-2.286-0.829-4.618-1.602-6.994-2.31c7.341-8.847,11.757-20.21,11.757-32.604c0-10.004-2.886-17.086-7.854-22.075
			c0.903-1.266,1.715-2.642,2.413-4.141c7.289-15.639-3.062-33.216-4.266-35.169c-3.077-4.989-9.618-6.536-14.604-3.463
			c-4.975,3.068-6.53,9.579-3.487,14.563c1.803,2.996,5.08,10.954,3.107,15.128c-0.718,1.519-2.319,2.648-4.203,3.489
			c-6.716-1.21-14.248-1.613-22.206-1.613v87.516v25.94v53.453v25.94v23.582c25.344,0,48.597-6.623,66.781-17.656
			c17.631,4.773,58.204,21.936,58.204,78.764c0,5.861,4.752,10.603,10.612,10.603c5.861,0,10.612-4.772,10.612-10.634
			c0-46.934-23.098-72.167-42.474-85.032c-5.942-3.946-11.885-6.995-17.36-9.337c7.95-8.391,13.724-17.991,16.723-28.355h59.226
			c5.861,0,10.612-4.639,10.612-10.5C428.937,262.639,424.186,257.999,418.324,257.999z"/>
		<path style="fill:#BDC3C7;" d="M256,211.731v25.94v53.453v25.94c29.088,0,52.667-23.58,52.667-52.667
			C308.667,235.31,285.088,211.731,256,211.731z"/>
		<path style="fill:#2A3E4F;" d="M282.727,264.398c0-14.761-11.967-26.727-26.727-26.727v53.453
			C270.76,291.125,282.727,279.158,282.727,264.398z"/>
		<circle style="fill:#ECF0F1;" cx="275.271" cy="244.746" r="15.721"/>
	</g>
</g>
<g id="Finance__x2F__Money">
</g>
<g id="E-Commerce__x2F__Shopping">
</g>
<g id="Strategy">
</g>
<g>
</g>
<g>
</g>
<g>
</g>
<g>
</g>
<g>
</g>
<g>
</g>
<g>
</g>
<g>
</g>
<g>
</g>
<g>
</g>
<g>
</g>
<g>
</g>
<g>
</g>
<g>
</g>
<g>
</g>
</svg>
